<svg version="1.1" id="Layer_1" xmlns="http://www.w3.org/2000/svg" xmlns:xlink="http://www.w3.org/1999/xlink" x="0px" y="0px"
	 width="100%" viewBox="0 0 569 834" enable-background="new 0 0 569 834" xml:space="preserve">
<path fill="#000000" opacity="1.000000" stroke="none" 
	d="
M265.000000,835.000000 
	C176.666672,835.000000 88.833336,835.000000 1.000000,835.000000 
	C1.000000,557.000000 1.000000,279.000000 1.000000,1.000000 
	C190.666672,1.000000 380.333344,1.000000 570.000000,1.000000 
	C570.000000,279.000000 570.000000,557.000000 570.000000,835.000000 
	C468.500000,835.000000 367.000000,835.000000 265.000000,835.000000 
M127.229935,483.454102 
	C127.114281,485.948486 126.998627,488.442871 126.228134,491.440216 
	C126.208382,493.958221 126.188622,496.476196 126.036400,499.897552 
	C126.029472,501.553040 125.997040,503.208923 126.020210,504.863983 
	C126.104622,510.891663 127.801552,512.931702 133.856812,512.965881 
	C150.575348,513.060425 167.295334,512.897766 184.943542,512.955505 
	C195.622269,513.248901 206.300995,513.542358 217.709778,513.942078 
	C221.149872,512.945312 223.488007,511.090302 223.744659,506.550201 
	C223.487595,495.353027 223.230515,484.155884 223.563858,473.230347 
	C224.672134,474.505920 225.780411,475.781494 227.222610,477.670410 
	C229.245117,479.638336 231.380188,481.504578 233.267838,483.594299 
	C237.889572,488.710999 242.397125,493.930878 247.234268,499.689362 
	C248.804321,501.164886 250.374359,502.640442 252.250381,504.699097 
	C254.796524,507.153595 257.342682,509.608063 260.222015,512.672424 
	C261.464355,513.156433 262.706665,513.640503 264.481995,514.745911 
	C275.977509,514.445068 287.473022,514.144165 299.679077,513.723022 
	C306.533875,511.006500 306.910156,508.052765 300.955658,502.219208 
	C298.305481,498.490173 295.787903,494.657837 292.978516,491.052856 
	C286.442108,482.665466 279.765106,474.387665 273.758026,465.767120 
	C274.844208,464.825348 276.187988,464.060944 276.977295,462.914764 
	C286.380096,449.260132 295.634399,435.502960 305.080292,421.878510 
	C308.135498,417.471741 311.636658,413.374176 315.227722,409.771057 
	C315.778198,413.534729 316.328674,417.298431 316.969696,421.810638 
	C317.273438,422.727448 317.370087,423.795441 317.912262,424.538208 
	C325.208405,434.533264 332.523438,444.515259 339.925140,454.432281 
	C344.592224,460.685364 349.412018,466.824493 354.039001,473.457520 
	C354.039001,473.457520 353.945984,473.907379 353.017975,473.981567 
	C334.363129,474.370911 315.708252,474.760284 296.238434,475.023010 
	C294.032257,475.985535 290.476959,476.493439 289.960693,478.025452 
	C289.312347,479.949371 291.153381,482.712219 292.229065,485.724518 
	C298.115082,493.500458 304.001068,501.276398 310.199768,509.681335 
	C312.447632,510.832794 314.695496,511.984222 317.427673,513.771729 
	C322.498779,513.520874 327.568329,513.096558 332.641266,513.051086 
	C349.090576,512.903442 365.541107,512.894653 382.817322,512.963867 
	C384.406952,512.643921 385.983093,512.164673 387.588318,512.028564 
	C404.218750,510.618347 409.248901,495.689819 404.895996,482.202820 
	C400.987335,470.092316 390.691895,462.011993 383.443695,451.991302 
	C378.763245,445.520508 373.722595,439.310242 368.973663,432.558990 
	C368.973663,432.558990 369.049957,432.121826 369.791504,431.725861 
	C373.866150,431.425232 377.940826,431.124603 382.942993,430.952850 
	C389.402924,430.975800 395.865234,431.108551 402.321564,430.967194 
	C404.874390,430.911346 407.413910,430.245605 410.704193,429.981232 
	C414.349792,429.628754 415.396118,427.058838 415.960083,423.132660 
	C416.674835,416.436859 417.389587,409.741058 418.715485,402.623444 
	C418.804321,396.679474 416.760315,394.929993 409.310760,395.031860 
	C408.870789,395.075989 408.430817,395.120117 407.062683,395.034241 
	C399.690125,394.759827 392.317596,394.485413 385.615143,393.838074 
	C391.090698,391.263824 396.566254,388.689575 402.649078,385.829163 
	C404.445892,384.252625 406.242706,382.676117 408.642670,380.771118 
	C414.917633,374.088928 417.413971,365.786652 418.964478,356.089386 
	C419.000763,346.928284 419.911682,337.666107 415.901276,328.231506 
	C413.063599,318.394440 407.546265,310.127411 400.962433,302.444183 
	C391.412720,291.299713 381.779419,280.219818 372.500153,268.852478 
	C360.745270,254.452347 349.320160,239.783188 337.733856,225.245148 
	C322.018616,205.526321 308.225952,184.496994 296.284912,162.338577 
	C289.897552,150.485886 284.937897,137.867905 279.168243,125.673691 
	C278.340607,123.924454 276.807251,121.894707 275.163330,121.373444 
	C274.155334,121.053825 271.859100,123.070251 270.928162,124.537025 
	C267.156433,130.479736 263.689606,136.615982 259.577423,143.025391 
	C252.704269,153.983154 245.831131,164.940903 238.354187,176.226898 
	C222.867615,197.801727 207.381027,219.376556 191.354538,241.281662 
	C190.625641,242.525940 189.896744,243.770218 188.840454,245.619339 
	C175.853729,263.400055 162.866989,281.180786 149.279938,299.269775 
	C147.186264,302.007111 145.019531,304.692017 143.011047,307.490540 
	C132.060577,322.748169 124.992844,339.006592 127.870621,358.550903 
	C129.818039,371.776764 143.121307,385.144440 154.389297,388.696228 
	C160.316849,390.482178 166.244385,392.268158 171.613022,394.728577 
	C165.725250,395.110565 159.837479,395.492554 153.145447,395.959259 
	C139.303421,397.609711 135.255890,407.369904 137.513443,419.883209 
	C139.985535,433.585602 148.985535,443.178070 158.999008,452.749542 
	C163.990128,458.202301 168.981262,463.655060 174.251572,469.680695 
	C174.479385,470.450592 174.707199,471.220520 174.106476,472.086426 
	C165.734772,472.781830 157.363068,473.477203 148.124588,474.048065 
	C143.733231,474.660156 139.341888,475.272278 134.166260,475.961731 
	C129.421249,475.898621 127.825562,478.679810 127.229935,483.454102 
M388.069031,544.052185 
	C382.703674,544.086731 377.338287,544.121277 371.045807,544.035767 
	C324.494293,544.023193 277.942780,543.996155 231.391251,544.006287 
	C215.932220,544.009644 200.473221,544.108643 184.084351,544.022888 
	C176.725739,544.069275 169.367142,544.115662 161.180695,544.020020 
	C160.026749,544.020081 158.851074,543.875732 157.722687,544.045593 
	C153.190292,544.728088 149.416016,548.810852 149.074844,553.275085 
	C148.716125,557.968811 151.330795,561.578247 156.748581,563.237488 
	C160.166107,563.440369 163.583618,563.643250 167.930237,563.973022 
	C174.289505,563.929871 180.648788,563.886719 187.936951,563.968994 
	C220.516724,563.978394 253.096512,564.009277 285.676270,563.989807 
	C307.781158,563.976501 329.885986,563.892456 352.921326,563.973328 
	C363.740814,563.980408 374.560486,564.022522 385.379517,563.955627 
	C386.939880,563.945984 388.497009,563.412292 390.799988,563.044067 
	C395.581329,561.766235 396.962372,558.293030 397.005127,553.770691 
	C397.057587,548.221375 393.990356,545.436096 388.069031,544.052185 
M261.269470,588.692444 
	C261.897186,589.454834 262.524933,590.217285 263.356171,591.788574 
	C263.555603,592.403076 263.939819,593.021362 263.927307,593.631531 
	C263.651398,607.109680 263.198669,620.585510 263.058716,634.064758 
	C262.927490,646.704224 263.118408,659.347046 263.052460,672.800781 
	C263.360168,674.237366 263.769958,675.660828 263.957825,677.112915 
	C264.755280,683.275635 268.616791,687.087219 274.055267,686.990051 
	C278.774384,686.905823 282.894684,682.379517 282.915985,676.291931 
	C283.007294,650.188354 282.877930,624.084045 282.936554,597.076721 
	C282.936554,594.160217 282.936554,591.243652 282.936554,588.008118 
	C303.153229,588.008118 322.453461,588.052124 341.753174,587.967285 
	C345.184448,587.952209 348.613312,587.401611 352.754425,586.986084 
	C357.033234,583.957275 359.235260,579.116272 357.585358,575.297668 
	C355.635315,570.784485 352.195892,568.301636 346.051758,569.052490 
	C335.751312,569.035583 325.450867,568.994019 315.150452,569.006226 
	C277.439209,569.050842 239.727966,569.113403 201.182220,569.033447 
	C192.745407,569.093079 188.478043,572.756409 189.059998,579.558472 
	C189.475586,584.416199 192.659271,589.189819 202.940521,587.948975 
	C222.269348,588.012756 241.598175,588.076599 261.269470,588.692444 
M397.907928,537.968628 
	C401.403839,537.981567 404.905060,538.122314 408.394348,537.976746 
	C413.352844,537.770081 416.904144,535.088196 418.613617,530.614075 
	C420.266571,526.287903 418.180237,522.562256 414.595062,520.348267 
	C412.232849,518.889526 409.065247,518.133423 406.248810,518.107971 
	C385.773071,517.922729 365.294891,518.000061 344.817505,517.999939 
	C277.891388,517.999512 210.965225,517.967773 144.039337,518.089966 
	C140.198502,518.096985 135.993759,518.616211 132.621979,520.259033 
	C129.161499,521.945068 127.384766,525.670959 128.515732,529.952698 
	C129.838348,534.960083 132.925385,537.255249 139.945007,537.938049 
	C203.832336,537.958862 267.719666,537.995422 331.606995,537.991821 
	C353.399719,537.990540 375.192413,537.888306 397.907928,537.968628 
z"/>
<path fill="#695F5D" opacity="1.000000" stroke="none" 
	d="
M153.961548,388.110931 
	C143.121307,385.144440 129.818039,371.776764 127.870621,358.550903 
	C124.992844,339.006592 132.060577,322.748169 143.011047,307.490540 
	C145.019531,304.692017 147.186264,302.007111 149.983429,299.118042 
	C153.024277,297.719543 156.053909,297.025970 157.572693,295.125153 
	C162.688507,288.722595 167.221115,281.857178 172.062561,275.231476 
	C178.284485,266.716492 184.680115,258.325287 190.708649,249.677048 
	C191.269806,248.872070 189.731384,246.603516 189.167816,245.014496 
	C189.896744,243.770218 190.625641,242.525940 191.913910,241.293732 
	C194.188263,242.267395 195.903229,243.228989 197.689011,244.230286 
	C198.277191,242.414474 198.456314,240.702286 199.303085,239.436890 
	C204.498489,231.673080 209.820221,223.993042 215.174561,216.337326 
	C215.798279,215.445557 216.965851,214.954346 217.731186,214.136887 
	C218.980072,212.802917 220.747406,211.518082 221.157822,209.920181 
	C222.229630,205.747055 223.801514,202.469711 227.465607,202.497116 
	C228.292679,199.954544 228.488831,198.090256 229.418610,196.725922 
	C232.398514,192.353363 235.501526,188.044601 238.847595,183.948608 
	C241.163803,181.113297 241.101486,178.612366 238.957977,175.898666 
	C245.831131,164.940903 252.704269,153.983154 260.224579,142.951248 
	C262.343597,142.292191 264.281616,142.104126 265.188812,141.038498 
	C266.994049,138.917908 268.167908,136.272079 269.720459,133.921066 
	C271.823639,130.736252 275.952606,130.870834 277.645447,134.285080 
	C279.918121,138.868820 281.867554,143.611694 284.079926,148.226746 
	C287.503143,155.367615 290.721283,162.632568 294.596985,169.523972 
	C299.018188,177.385437 304.017639,184.925095 308.853943,192.548691 
	C313.175415,199.360794 317.277191,206.349548 322.083313,212.808380 
	C329.683380,223.021988 337.758698,232.883682 345.694550,242.845200 
	C351.671143,250.347397 357.728424,257.785614 363.780243,265.227539 
	C367.640564,269.974640 371.514862,274.711548 375.457581,279.390076 
	C380.676331,285.582825 385.955322,291.725006 391.233063,297.867767 
	C394.568634,301.750092 398.363129,305.314178 401.206635,309.524261 
	C404.905426,315.000641 407.717468,321.069550 411.256500,326.665009 
	C412.040985,327.905334 414.268677,328.232849 415.831818,328.980682 
	C419.911682,337.666107 419.000763,346.928284 418.519836,356.559082 
	C414.791443,356.981018 413.367584,358.312622 413.584717,361.858307 
	C413.687622,363.538483 412.562469,365.443207 411.606781,367.010254 
	C408.949188,371.368042 405.852203,375.541504 408.039551,381.099609 
	C406.242706,382.676117 404.445892,384.252625 402.280243,385.635437 
	C400.245850,381.577698 397.773712,384.256348 395.682465,384.763367 
	C389.673615,386.220215 383.770782,388.266388 377.691406,389.228882 
	C373.369934,389.913116 368.827545,389.083679 364.387909,389.162720 
	C352.837616,389.368347 341.289978,389.720764 329.740417,389.973297 
	C326.493561,390.044281 323.243622,389.972534 319.598114,389.966827 
	C317.144226,389.667877 315.087311,389.368347 312.561035,389.057007 
	C300.113617,389.028625 288.135559,389.008881 276.157471,388.996216 
	C257.729919,388.976746 239.301361,389.073975 220.875168,388.907043 
	C208.065720,388.790985 195.249863,388.522705 182.455200,387.928009 
	C173.633652,387.517975 164.516998,388.608765 156.273895,384.022308 
	C155.666290,383.684204 154.758133,383.886322 153.736694,383.821106 
	C153.824646,385.499084 153.893097,386.804993 153.961548,388.110931 
M251.249557,338.614532 
	C251.504517,339.753021 251.759491,340.891479 251.075363,342.036072 
	C232.053314,342.064423 213.031281,342.092773 193.319534,342.312775 
	C190.343811,344.851471 188.228806,352.366211 190.560913,356.322205 
	C191.864136,358.532898 195.426315,360.199341 198.186722,360.592133 
	C203.221115,361.308472 208.416229,360.940399 213.544357,360.945282 
	C236.145203,360.966766 258.748260,361.155487 281.346344,360.906769 
	C302.716400,360.671570 324.080963,359.950043 345.449280,359.508087 
	C346.718689,359.481812 348.001465,360.033356 349.275726,360.326111 
	C353.190247,361.225647 355.387878,359.528107 355.917725,355.703217 
	C356.166687,353.905945 356.019989,352.049469 356.001709,350.220337 
	C355.931702,343.210999 354.827332,342.047638 347.904175,342.038940 
	C329.605743,342.015900 311.307220,342.044830 293.120575,341.407990 
	C293.701752,340.285950 294.282928,339.163879 295.818054,338.009918 
	C306.970917,337.997986 318.123749,337.987396 329.276611,337.973633 
	C336.101440,337.965210 342.942017,338.206940 349.741516,337.786377 
	C351.801178,337.658966 355.387421,335.777771 355.450958,334.553406 
	C355.681671,330.105682 354.762115,325.588928 354.104034,321.123596 
	C354.055573,320.794830 352.638519,320.482880 351.854462,320.474640 
	C335.907074,320.306458 319.959229,320.115143 304.011414,320.106293 
	C300.553314,320.104401 297.094818,320.790436 293.032074,320.886993 
	C291.687317,320.614044 290.342560,320.341095 288.995911,319.279907 
	C288.310394,316.256836 287.624878,313.233795 287.875397,310.074280 
	C308.260925,310.107849 328.646454,310.141388 349.226105,310.797546 
	C350.612335,313.041718 352.935242,316.712036 354.724548,312.812012 
	C356.490448,308.962891 355.927765,303.683228 355.125244,299.260010 
	C354.911285,298.080658 350.076752,297.114380 347.360657,297.106812 
	C296.575470,296.964905 245.789871,296.982635 194.247314,296.990417 
	C192.937576,298.178467 190.325287,299.711792 190.533554,300.497437 
	C191.714493,304.952393 187.697571,310.017303 192.112610,313.932281 
	C192.471252,314.250305 193.355209,313.975891 193.996948,314.835663 
	C194.000534,316.834351 194.004120,318.833069 193.304733,321.068970 
	C187.904831,322.798187 191.261993,327.270660 190.438065,330.415863 
	C189.237198,334.999969 190.995514,337.460663 196.566528,337.322052 
	C214.697144,337.538635 232.827744,337.755188 251.249557,338.614532 
z"/>
<path fill="#685F5F" opacity="1.000000" stroke="none" 
	d="
M139.014862,537.830383 
	C132.925385,537.255249 129.838348,534.960083 128.515732,529.952698 
	C127.384766,525.670959 129.161499,521.945068 132.621979,520.259033 
	C135.993759,518.616211 140.198502,518.096985 144.039337,518.089966 
	C210.965225,517.967773 277.891388,517.999512 344.817505,517.999939 
	C365.294891,518.000061 385.773071,517.922729 406.248810,518.107971 
	C409.065247,518.133423 412.232849,518.889526 414.595062,520.348267 
	C418.180237,522.562256 420.266571,526.287903 418.613617,530.614075 
	C416.904144,535.088196 413.352844,537.770081 408.394348,537.976746 
	C404.905060,538.122314 401.403839,537.981567 397.542450,537.597168 
	C399.222107,533.324219 397.812347,532.066833 393.743469,532.542786 
	C391.107574,532.851135 388.435913,532.973999 385.780212,532.974915 
	C321.166077,532.997437 256.551910,533.006287 191.937790,532.959595 
	C187.796829,532.956604 183.655624,532.262817 179.515549,532.273865 
	C167.882492,532.304810 156.250076,532.543518 144.617188,532.683838 
	C141.775375,532.718140 138.932800,532.688904 135.793152,532.688904 
	C137.109100,534.789001 138.061981,536.309692 139.014862,537.830383 
z"/>
<path fill="#695F5C" opacity="1.000000" stroke="none" 
	d="
M263.949005,514.124512 
	C262.706665,513.640503 261.464355,513.156433 260.327148,512.141052 
	C264.419189,506.672974 259.137299,504.943054 256.973877,502.471924 
	C254.791275,499.978882 253.266037,502.393250 251.944397,504.115997 
	C250.374359,502.640442 248.804321,501.164886 247.271820,499.104370 
	C249.856171,495.232330 248.013336,492.814972 245.833832,490.308746 
	C241.154282,484.927643 236.587601,479.448395 232.240219,473.791748 
	C237.542175,466.295776 242.651642,459.066467 247.590652,451.722565 
	C251.148254,446.432709 254.447342,440.969482 257.945160,435.638336 
	C258.459259,434.854767 259.362152,434.238983 260.211212,433.777405 
	C264.132874,431.645477 266.175934,428.627319 265.394928,423.867432 
	C267.892548,420.689789 270.203308,417.733002 272.256439,414.607025 
	C273.377380,412.900330 274.061951,410.907074 275.212280,408.838867 
	C280.383179,405.407043 283.365784,400.977631 283.688477,394.952637 
	C285.653198,395.715057 287.328278,396.365112 289.403625,397.029358 
	C298.201385,397.694916 306.598846,398.346222 314.843750,399.304321 
	C308.927307,408.043854 303.158569,416.473328 297.400787,424.910248 
	C289.385925,436.654480 281.358093,448.389984 273.395844,460.169769 
	C272.398712,461.645020 271.766144,463.366669 270.818451,465.262207 
	C273.643890,470.811401 276.474487,476.158844 279.626190,481.309753 
	C282.894714,486.651550 286.544373,491.759003 289.875305,497.064423 
	C290.878510,498.662323 291.027069,501.781158 292.170837,502.111176 
	C294.951477,502.913574 297.817505,506.766144 301.056183,502.912415 
	C306.910156,508.052765 306.533875,511.006500 299.313232,513.411621 
	C297.399139,511.500092 295.792053,508.473022 294.312164,508.533936 
	C285.412415,508.900604 276.526611,509.852600 267.677582,510.944458 
	C266.324524,511.111389 265.186493,513.020935 263.949005,514.124512 
M250.958237,496.904877 
	C251.020218,497.385620 251.082199,497.866364 251.144180,498.347107 
	C251.419022,498.289062 251.693848,498.231018 251.968704,498.172974 
	C251.768311,497.724060 251.567917,497.275116 250.958237,496.904877 
z"/>
<path fill="#685F5E" opacity="1.000000" stroke="none" 
	d="
M202.010529,587.834778 
	C192.659271,589.189819 189.475586,584.416199 189.059998,579.558472 
	C188.478043,572.756409 192.745407,569.093079 201.533722,569.425659 
	C201.527222,574.783081 205.404739,572.912598 207.481903,572.918213 
	C251.615936,573.037659 295.750366,573.012634 339.884705,573.011658 
	C341.050018,573.011658 342.487610,573.385925 343.319916,572.847046 
	C344.740448,571.927246 345.781250,570.420959 346.981567,569.161011 
	C352.195892,568.301636 355.635315,570.784485 357.585358,575.297668 
	C359.235260,579.116272 357.033234,583.957275 352.365845,586.668701 
	C350.773499,585.378723 349.585144,583.580872 348.363556,583.557983 
	C331.095520,583.234436 313.823059,583.072754 296.551514,583.061218 
	C291.596863,583.057922 286.575928,583.300842 281.727234,584.197815 
	C280.277222,584.465942 278.042267,587.655090 278.369476,588.949036 
	C279.174255,592.131775 281.258972,594.990784 282.828979,597.979980 
	C282.877930,624.084045 283.007294,650.188354 282.915985,676.291931 
	C282.894684,682.379517 278.774384,686.905823 274.055267,686.990051 
	C268.616791,687.087219 264.755280,683.275635 263.957825,677.112915 
	C263.769958,675.660828 263.360168,674.237366 263.460266,672.345947 
	C268.376740,669.815186 268.970673,665.766663 268.978210,661.514282 
	C269.011963,642.538208 269.123840,623.560608 268.904968,604.587036 
	C268.852478,600.035034 267.640686,595.496521 267.047302,590.607971 
	C268.676849,585.511902 266.148895,584.071289 261.628113,583.769470 
	C260.618134,583.426147 259.978424,583.123535 259.337952,583.121887 
	C241.601669,583.075317 223.865234,583.075623 206.128967,583.023865 
	C202.765640,583.014099 201.850540,584.919861 202.010529,587.834778 
M268.777496,674.059204 
	C268.897827,673.975708 269.018158,673.892212 269.138519,673.808777 
	C269.021210,673.832031 268.903870,673.855286 268.777496,674.059204 
z"/>
<path fill="#706C68" opacity="1.000000" stroke="none" 
	d="
M139.479919,537.884216 
	C138.061981,536.309692 137.109100,534.789001 135.793152,532.688904 
	C138.932800,532.688904 141.775375,532.718140 144.617188,532.683838 
	C156.250076,532.543518 167.882492,532.304810 179.515549,532.273865 
	C183.655624,532.262817 187.796829,532.956604 191.937790,532.959595 
	C256.551910,533.006287 321.166077,532.997437 385.780212,532.974915 
	C388.435913,532.973999 391.107574,532.851135 393.743469,532.542786 
	C397.812347,532.066833 399.222107,533.324219 397.081055,537.528931 
	C375.192413,537.888306 353.399719,537.990540 331.606995,537.991821 
	C267.719666,537.995422 203.832336,537.958862 139.479919,537.884216 
z"/>
<path fill="#706A6A" opacity="1.000000" stroke="none" 
	d="
M415.866547,328.606079 
	C414.268677,328.232849 412.040985,327.905334 411.256500,326.665009 
	C407.717468,321.069550 404.905426,315.000641 401.206635,309.524261 
	C398.363129,305.314178 394.568634,301.750092 391.233063,297.867767 
	C385.955322,291.725006 380.676331,285.582825 375.457581,279.390076 
	C371.514862,274.711548 367.640564,269.974640 363.780243,265.227539 
	C357.728424,257.785614 351.671143,250.347397 345.694550,242.845200 
	C337.758698,232.883682 329.683380,223.021988 322.083313,212.808380 
	C317.277191,206.349548 313.175415,199.360794 308.853943,192.548691 
	C304.017639,184.925095 299.018188,177.385437 294.596985,169.523972 
	C290.721283,162.632568 287.503143,155.367615 284.079926,148.226746 
	C281.867554,143.611694 279.918121,138.868820 277.645447,134.285080 
	C275.952606,130.870834 271.823639,130.736252 269.720459,133.921066 
	C268.167908,136.272079 266.994049,138.917908 265.188812,141.038498 
	C264.281616,142.104126 262.343597,142.292191 260.490997,142.778961 
	C263.689606,136.615982 267.156433,130.479736 270.928162,124.537025 
	C271.859100,123.070251 274.155334,121.053825 275.163330,121.373444 
	C276.807251,121.894707 278.340607,123.924454 279.168243,125.673691 
	C284.937897,137.867905 289.897552,150.485886 296.284912,162.338577 
	C308.225952,184.496994 322.018616,205.526321 337.733856,225.245148 
	C349.320160,239.783188 360.745270,254.452347 372.500153,268.852478 
	C381.779419,280.219818 391.412720,291.299713 400.962433,302.444183 
	C407.546265,310.127411 413.063599,318.394440 415.866547,328.606079 
z"/>
<path fill="#726769" opacity="1.000000" stroke="none" 
	d="
M289.003357,397.015137 
	C287.328278,396.365112 285.653198,395.715057 283.688477,394.952637 
	C283.365784,400.977631 280.383179,405.407043 274.893005,408.791809 
	C273.526367,408.601105 272.748077,408.253235 272.115845,407.601288 
	C275.210907,403.152557 278.159882,399.007935 281.477844,394.344635 
	C275.303070,394.344635 270.096039,394.344635 264.467407,394.292633 
	C262.046295,394.210236 260.046753,394.179871 257.577271,394.105957 
	C244.864243,394.041168 232.620743,393.951782 220.378296,394.028656 
	C214.607605,394.064911 208.838928,394.420319 202.601654,394.609314 
	C192.146622,394.409668 182.159271,394.231873 172.171936,394.054077 
	C166.244385,392.268158 160.316849,390.482178 154.175415,388.403564 
	C153.893097,386.804993 153.824646,385.499084 153.736694,383.821106 
	C154.758133,383.886322 155.666290,383.684204 156.273895,384.022308 
	C164.516998,388.608765 173.633652,387.517975 182.455200,387.928009 
	C195.249863,388.522705 208.065720,388.790985 220.875168,388.907043 
	C239.301361,389.073975 257.729919,388.976746 276.157471,388.996216 
	C288.135559,389.008881 300.113617,389.028625 312.399414,389.367981 
	C310.833374,390.614258 309.032013,392.091095 307.071014,392.347565 
	C302.816406,392.904053 298.481659,392.896454 294.176849,393.003204 
	C291.394592,393.072205 289.207275,393.713196 289.003357,397.015137 
z"/>
<path fill="#BE5046" opacity="1.000000" stroke="none" 
	d="
M351.990845,563.840088 
	C329.885986,563.892456 307.781158,563.976501 285.676270,563.989807 
	C253.096512,564.009277 220.516724,563.978394 187.525650,563.549438 
	C189.418472,561.428711 191.722595,559.727539 194.450592,558.021118 
	C196.575714,558.019592 198.276978,558.023193 200.196503,558.339478 
	C206.687103,560.549438 212.927536,561.498718 219.445084,558.023254 
	C221.575104,558.017944 223.279221,558.015503 225.181061,558.313293 
	C228.093262,560.537415 230.682022,560.879456 233.482880,558.004089 
	C271.292175,558.010803 308.633728,558.019897 346.140015,558.314819 
	C348.200073,560.347107 350.095459,562.093567 351.990845,563.840088 
z"/>
<path fill="#B34846" opacity="1.000000" stroke="none" 
	d="
M368.843323,432.983276 
	C373.722595,439.310242 378.763245,445.520508 383.443695,451.991302 
	C390.691895,462.011993 400.987335,470.092316 404.895996,482.202820 
	C409.248901,495.689819 404.218750,510.618347 387.588318,512.028564 
	C385.983093,512.164673 384.406952,512.643921 382.365906,512.533875 
	C381.593933,510.422089 381.273376,508.740295 381.296082,506.871399 
	C382.770966,506.453369 383.894257,506.163635 385.035614,506.000549 
	C395.467468,504.510101 401.672363,497.043121 399.704071,486.879028 
	C398.833618,482.384094 396.264191,477.846252 393.379700,474.183350 
	C384.876373,463.385284 375.704742,453.115845 367.075012,442.413483 
	C364.576935,439.315430 363.024200,435.455078 361.323425,432.140137 
	C364.020294,432.551819 366.431793,432.767548 368.843323,432.983276 
z"/>
<path fill="#746C6E" opacity="1.000000" stroke="none" 
	d="
M346.516663,569.106750 
	C345.781250,570.420959 344.740448,571.927246 343.319916,572.847046 
	C342.487610,573.385925 341.050018,573.011658 339.884705,573.011658 
	C295.750366,573.012634 251.615936,573.037659 207.481903,572.918213 
	C205.404739,572.912598 201.527222,574.783081 201.950989,569.493530 
	C239.727966,569.113403 277.439209,569.050842 315.150452,569.006226 
	C325.450867,568.994019 335.751312,569.035583 346.516663,569.106750 
z"/>
<path fill="#B84745" opacity="1.000000" stroke="none" 
	d="
M354.163330,473.014709 
	C349.412018,466.824493 344.592224,460.685364 339.925140,454.432281 
	C332.523438,444.515259 325.208405,434.533264 317.912262,424.538208 
	C317.370087,423.795441 317.273438,422.727448 317.300720,421.343201 
	C318.433807,418.919342 319.710266,417.017975 319.945312,414.995636 
	C320.548676,409.803589 320.990143,404.380524 326.143829,401.755249 
	C329.399445,400.096832 333.383942,399.869354 337.433044,399.001831 
	C339.554688,399.330872 341.284790,399.658112 343.012573,400.240540 
	C343.010040,400.665802 343.009888,400.835815 342.597778,401.055145 
	C339.376770,401.424866 336.348663,401.194916 333.813812,402.204041 
	C330.602539,403.482513 326.698975,405.086548 325.032684,407.758942 
	C321.364807,413.641541 323.375275,422.278320 328.094879,427.665894 
	C332.257172,432.417267 336.190125,437.375458 340.103607,442.337524 
	C346.329559,450.231842 352.578033,458.114685 358.543823,466.203827 
	C360.203705,468.454529 360.900787,471.415253 361.655975,473.951935 
	C358.902679,473.574005 356.533020,473.294373 354.163330,473.014709 
z"/>
<path fill="#BC4747" opacity="1.000000" stroke="none" 
	d="
M222.973450,472.958710 
	C223.230515,484.155884 223.487595,495.353027 223.186554,506.585022 
	C219.766449,503.245941 218.242798,505.281097 216.453888,508.033600 
	C213.629303,507.993988 211.248489,507.958557 209.071594,507.641998 
	C217.477478,502.960785 218.687943,500.499664 217.687988,490.674866 
	C217.521896,489.042999 217.518448,487.340729 217.786514,485.728638 
	C218.583817,480.933716 216.767471,477.283112 214.062180,473.324738 
	C207.168365,463.237549 197.213211,455.438690 192.239136,443.933075 
	C191.760269,442.825378 190.135101,442.255188 189.489197,441.169464 
	C187.886459,438.475433 186.542587,435.627380 185.438354,432.972595 
	C188.460297,433.721527 191.138626,434.339111 193.909912,435.304932 
	C201.283340,445.545715 208.496231,455.489197 215.887146,465.298523 
	C217.993851,468.094513 220.617569,470.500946 223.028046,473.046570 
	C223.051880,473.007141 222.973450,472.958710 222.973450,472.958710 
z"/>
<path fill="#C74C4C" opacity="1.000000" stroke="none" 
	d="
M185.014206,544.163879 
	C200.473221,544.108643 215.932220,544.009644 231.391251,544.006287 
	C277.942780,543.996155 324.494293,544.023193 371.388824,544.370850 
	C370.817566,545.468933 369.903290,546.232056 368.542664,546.993896 
	C359.812500,546.992310 351.528412,547.035889 343.244904,546.984253 
	C292.457123,546.667542 241.669266,546.349243 190.882355,545.922302 
	C188.921524,545.905884 186.970047,544.775269 185.014206,544.163879 
z"/>
<path fill="#BC4747" opacity="1.000000" stroke="none" 
	d="
M184.549286,544.093384 
	C186.970047,544.775269 188.921524,545.905884 190.882355,545.922302 
	C241.669266,546.349243 292.457123,546.667542 343.244904,546.984253 
	C351.528412,547.035889 359.812500,546.992310 368.544617,547.323914 
	C368.993408,548.094910 368.993896,548.534790 368.526367,548.982178 
	C302.017548,548.994934 235.976776,549.009216 169.936020,548.966797 
	C167.646088,548.965332 165.356522,548.397827 162.987274,547.764038 
	C162.608002,546.343262 162.308273,545.252686 162.008530,544.162048 
	C169.367142,544.115662 176.725739,544.069275 184.549286,544.093384 
z"/>
<path fill="#6E6665" opacity="1.000000" stroke="none" 
	d="
M266.962067,590.951782 
	C267.640686,595.496521 268.852478,600.035034 268.904968,604.587036 
	C269.123840,623.560608 269.011963,642.538208 268.978210,661.514282 
	C268.970673,665.766663 268.376740,669.815186 263.517822,671.939819 
	C263.118408,659.347046 262.927490,646.704224 263.058716,634.064758 
	C263.198669,620.585510 263.651398,607.109680 263.927307,593.631531 
	C263.939819,593.021362 263.555603,592.403076 263.635986,591.389832 
	C264.931213,590.977966 265.946655,590.964844 266.962067,590.951782 
z"/>
<path fill="#726769" opacity="1.000000" stroke="none" 
	d="
M319.995056,389.966248 
	C323.243622,389.972534 326.493561,390.044281 329.740417,389.973297 
	C341.289978,389.720764 352.837616,389.368347 364.387909,389.162720 
	C368.827545,389.083679 373.369934,389.913116 377.691406,389.228882 
	C383.770782,388.266388 389.673615,386.220215 395.682465,384.763367 
	C397.773712,384.256348 400.245850,381.577698 401.976624,385.778534 
	C396.566254,388.689575 391.090698,391.263824 384.868256,394.032501 
	C380.659271,394.432251 377.198944,394.772400 373.734711,394.818512 
	C361.503784,394.981323 349.271454,395.043457 336.637512,395.088531 
	C335.157410,394.951752 334.079468,394.870148 332.701599,394.500793 
	C328.301056,394.175293 324.200531,394.137512 320.030579,394.031799 
	C319.961212,393.963837 319.822235,393.828064 319.864868,393.445740 
	C319.936676,392.031036 319.965881,390.998657 319.995056,389.966248 
z"/>
<path fill="#BE4A43" opacity="1.000000" stroke="none" 
	d="
M297.053406,475.149628 
	C315.708252,474.760284 334.363129,474.370911 353.662659,474.214233 
	C355.551147,475.622314 356.794952,476.797668 357.843842,478.283203 
	C354.008453,479.394623 350.382050,480.801575 346.724915,480.886780 
	C334.306793,481.176056 321.877838,480.996216 309.453003,480.999725 
	C299.623108,481.002533 299.370605,481.355927 302.628357,489.926697 
	C300.542450,487.572540 298.774139,485.326294 297.078827,482.725403 
	C297.119019,479.963745 297.086212,477.556671 297.053406,475.149628 
z"/>
<path fill="#706A6A" opacity="1.000000" stroke="none" 
	d="
M282.882751,597.528320 
	C281.258972,594.990784 279.174255,592.131775 278.369476,588.949036 
	C278.042267,587.655090 280.277222,584.465942 281.727234,584.197815 
	C286.575928,583.300842 291.596863,583.057922 296.551514,583.061218 
	C313.823059,583.072754 331.095520,583.234436 348.363556,583.557983 
	C349.585144,583.580872 350.773499,585.378723 352.010315,586.724854 
	C348.613312,587.401611 345.184448,587.952209 341.753174,587.967285 
	C322.453461,588.052124 303.153229,588.008118 282.936554,588.008118 
	C282.936554,591.243652 282.936554,594.160217 282.882751,597.528320 
z"/>
<path fill="#6E6665" opacity="1.000000" stroke="none" 
	d="
M238.656082,176.062775 
	C241.101486,178.612366 241.163803,181.113297 238.847595,183.948608 
	C235.501526,188.044601 232.398514,192.353363 229.418610,196.725922 
	C228.488831,198.090256 228.292679,199.954544 227.465607,202.497116 
	C223.801514,202.469711 222.229630,205.747055 221.157822,209.920181 
	C220.747406,211.518082 218.980072,212.802917 217.731186,214.136887 
	C216.965851,214.954346 215.798279,215.445557 215.174561,216.337326 
	C209.820221,223.993042 204.498489,231.673080 199.303085,239.436890 
	C198.456314,240.702286 198.277191,242.414474 197.689011,244.230286 
	C195.903229,243.228989 194.188263,242.267395 192.183868,241.128586 
	C207.381027,219.376556 222.867615,197.801727 238.656082,176.062775 
z"/>
<path fill="#726769" opacity="1.000000" stroke="none" 
	d="
M270.964661,464.974152 
	C271.766144,463.366669 272.398712,461.645020 273.395844,460.169769 
	C281.358093,448.389984 289.385925,436.654480 297.400787,424.910248 
	C303.158569,416.473328 308.927307,408.043854 314.884644,398.946899 
	C316.659515,396.797852 318.240875,395.312958 319.822235,393.828064 
	C319.822235,393.828064 319.961212,393.963837 320.010132,394.379547 
	C320.439178,395.883514 320.819275,396.971802 321.077942,398.388794 
	C318.948975,402.190063 316.941406,405.662598 314.933838,409.135162 
	C311.636658,413.374176 308.135498,417.471741 305.080292,421.878510 
	C295.634399,435.502960 286.380096,449.260132 276.977295,462.914764 
	C276.187988,464.060944 274.844208,464.825348 273.178711,465.781464 
	C272.054474,465.521912 271.509552,465.248047 270.964661,464.974152 
z"/>
<path fill="#B34846" opacity="1.000000" stroke="none" 
	d="
M158.896957,452.056671 
	C148.985535,443.178070 139.985535,433.585602 137.513443,419.883209 
	C135.255890,407.369904 139.303421,397.609711 153.640503,396.250488 
	C154.768372,398.018311 155.401199,399.494934 155.651413,401.017700 
	C152.170074,402.689392 149.071365,404.314941 145.832611,406.189789 
	C145.420853,406.942261 145.149155,407.445465 144.568115,408.122314 
	C143.560226,410.543030 141.917511,412.994843 142.351532,414.996277 
	C143.387512,419.773590 145.403030,424.338440 147.100006,429.288971 
	C147.783600,430.393433 148.390182,431.198029 148.998383,432.001312 
	C149.000000,432.000000 148.996292,432.003662 149.079834,432.300903 
	C149.774246,433.397827 150.385101,434.197540 151.171631,435.278259 
	C152.895477,437.044891 154.443634,438.530548 156.078003,440.274048 
	C156.423523,441.007874 156.682846,441.483856 157.196381,441.974670 
	C157.620285,441.995270 157.789963,442.001007 157.972382,442.010956 
	C157.985123,442.015137 157.988724,442.045349 158.086243,442.375916 
	C158.859390,443.782990 159.477097,444.901520 160.222092,445.927673 
	C162.085587,448.494385 162.132202,450.616821 158.896957,452.056671 
z"/>
<path fill="#B34D4A" opacity="1.000000" stroke="none" 
	d="
M184.014755,512.836792 
	C167.295334,512.897766 150.575348,513.060425 133.856812,512.965881 
	C127.801552,512.931702 126.104622,510.891663 126.020210,504.863983 
	C125.997040,503.208923 126.029472,501.553040 126.482300,499.467712 
	C128.255493,500.231537 130.520996,501.284027 130.726044,502.646576 
	C131.245117,506.096100 132.879028,507.255280 136.506805,506.948242 
	C139.603333,506.939056 142.260147,506.930725 145.355637,506.950928 
	C159.191284,507.312439 172.588272,507.645355 185.900711,508.297058 
	C185.215683,510.022858 184.615219,511.429840 184.014755,512.836792 
z"/>
<path fill="#895555" opacity="1.000000" stroke="none" 
	d="
M265.100677,424.017761 
	C266.175934,428.627319 264.132874,431.645477 260.211212,433.777405 
	C259.362152,434.238983 258.459259,434.854767 257.945160,435.638336 
	C254.447342,440.969482 251.148254,446.432709 247.590652,451.722565 
	C242.651642,459.066467 237.542175,466.295776 231.922256,473.879089 
	C229.855438,475.141724 228.372055,476.099426 226.888702,477.057098 
	C225.780411,475.781494 224.672134,474.505920 223.268646,473.094543 
	C222.973450,472.958710 223.051880,473.007141 223.027985,472.600891 
	C222.997940,469.825562 222.991776,467.456482 223.394836,465.071198 
	C227.784592,465.241180 231.935257,466.958160 235.019211,462.415222 
	C242.886566,450.826080 250.983063,439.392426 259.301208,427.832153 
	C261.024109,426.575409 262.433716,425.383057 264.157349,424.145233 
	C264.681152,424.072449 264.890930,424.045105 265.100677,424.017761 
z"/>
<path fill="#6E6665" opacity="1.000000" stroke="none" 
	d="
M189.004135,245.316925 
	C189.731384,246.603516 191.269806,248.872070 190.708649,249.677048 
	C184.680115,258.325287 178.284485,266.716492 172.062561,275.231476 
	C167.221115,281.857178 162.688507,288.722595 157.572693,295.125153 
	C156.053909,297.025970 153.024277,297.719543 150.283585,298.963867 
	C162.866989,281.180786 175.853729,263.400055 189.004135,245.316925 
z"/>
<path fill="#C2504F" opacity="1.000000" stroke="none" 
	d="
M337.039673,395.143738 
	C349.271454,395.043457 361.503784,394.981323 373.734711,394.818512 
	C377.198944,394.772400 380.659271,394.432251 384.533203,394.218933 
	C392.317596,394.485413 399.690125,394.759827 407.409241,395.437134 
	C405.873077,396.883270 404.060547,398.632080 402.093414,398.827911 
	C397.509491,399.284332 392.840820,398.819305 388.228119,399.092743 
	C386.435211,399.199005 384.700592,400.288574 382.504639,400.946350 
	C379.730804,400.953857 377.391754,400.945190 374.825806,400.630402 
	C372.748260,399.885590 370.889679,399.041260 369.048340,399.077423 
	C360.367950,399.247925 351.692291,399.659668 343.014923,399.985352 
	C341.284790,399.658112 339.554688,399.330872 337.422974,398.615356 
	C337.027466,397.199310 337.033569,396.171539 337.039673,395.143738 
z"/>
<path fill="#BB4D51" opacity="1.000000" stroke="none" 
	d="
M380.952820,507.058502 
	C381.273376,508.740295 381.593933,510.422089 381.952820,512.468140 
	C365.541107,512.894653 349.090576,512.903442 332.641266,513.051086 
	C327.568329,513.096558 322.498779,513.520874 317.204895,513.066223 
	C317.348267,510.871277 317.714417,509.381836 318.436188,507.896515 
	C319.507355,507.914093 320.222870,507.927551 321.209778,508.111847 
	C322.669373,508.181274 323.857605,508.079865 325.506378,507.966919 
	C330.263672,507.925385 334.560394,507.895355 339.190491,508.043762 
	C350.263611,508.480743 361.002716,508.832001 371.743713,508.905243 
	C373.505280,508.917267 375.275208,507.705811 377.433228,507.047821 
	C378.867706,507.043396 379.910278,507.050964 380.952820,507.058502 
z"/>
<path fill="#6E6665" opacity="1.000000" stroke="none" 
	d="
M202.475525,587.891846 
	C201.850540,584.919861 202.765640,583.014099 206.128967,583.023865 
	C223.865234,583.075623 241.601669,583.075317 259.337952,583.121887 
	C259.978424,583.123535 260.618134,583.426147 261.592590,584.132019 
	C261.593689,585.830505 261.260345,586.985413 260.927002,588.140381 
	C241.598175,588.076599 222.269348,588.012756 202.475525,587.891846 
z"/>
<path fill="#BC4747" opacity="1.000000" stroke="none" 
	d="
M418.104370,403.045258 
	C417.389587,409.741058 416.674835,416.436859 415.606018,423.457764 
	C414.089600,422.952301 412.927246,422.121674 410.917755,420.685730 
	C410.552490,424.181610 410.255981,427.019562 409.959473,429.857544 
	C407.413910,430.245605 404.874390,430.911346 402.321564,430.967194 
	C395.865234,431.108551 389.402924,430.975800 382.584839,430.586121 
	C383.141510,428.786102 384.056335,427.352814 385.344849,425.745239 
	C391.976837,425.009155 398.244843,424.535126 404.489685,423.850281 
	C407.875214,423.479004 409.987183,421.399506 410.222748,417.963806 
	C410.585266,412.676727 410.699829,407.372681 410.944336,402.052643 
	C410.969055,402.029449 411.018707,401.983246 411.260651,402.168976 
	C413.703186,402.584900 415.903778,402.815063 418.104370,403.045258 
z"/>
<path fill="#C2504F" opacity="1.000000" stroke="none" 
	d="
M156.034027,400.971558 
	C155.401199,399.494934 154.768372,398.018311 154.042633,396.208099 
	C159.837479,395.492554 165.725250,395.110565 171.892487,394.391327 
	C182.159271,394.231873 192.146622,394.409668 202.629578,394.974091 
	C204.074646,396.598083 205.024078,397.835449 205.606979,399.249420 
	C195.875229,399.620392 186.507935,399.749817 177.146103,400.049377 
	C174.398560,400.137329 171.666473,400.708374 168.473022,401.057404 
	C164.383514,401.064117 160.748276,401.071442 156.843613,401.048859 
	C156.394119,401.003143 156.214066,400.987335 156.034027,400.971558 
z"/>
<path fill="#706A6A" opacity="1.000000" stroke="none" 
	d="
M270.818451,465.262207 
	C271.509552,465.248047 272.054474,465.521912 272.872223,465.930603 
	C279.765106,474.387665 286.442108,482.665466 292.978516,491.052856 
	C295.787903,494.657837 298.305481,498.490173 301.005920,502.565796 
	C297.817505,506.766144 294.951477,502.913574 292.170837,502.111176 
	C291.027069,501.781158 290.878510,498.662323 289.875305,497.064423 
	C286.544373,491.759003 282.894714,486.651550 279.626190,481.309753 
	C276.474487,476.158844 273.643890,470.811401 270.818451,465.262207 
z"/>
<path fill="#BE4540" opacity="1.000000" stroke="none" 
	d="
M352.456085,563.906677 
	C350.095459,562.093567 348.200073,560.347107 346.611328,558.303894 
	C360.250397,557.985168 373.582794,557.963196 387.047424,558.248169 
	C388.138336,560.077148 389.097015,561.599121 390.055664,563.121094 
	C388.497009,563.412292 386.939880,563.945984 385.379517,563.955627 
	C374.560486,564.022522 363.740814,563.980408 352.456085,563.906677 
z"/>
<path fill="#B9433E" opacity="1.000000" stroke="none" 
	d="
M148.991364,474.172607 
	C157.363068,473.477203 165.734772,472.781830 174.805420,472.214600 
	C177.356323,473.574341 179.208298,474.805847 180.954132,476.353638 
	C177.917404,481.033478 173.075699,479.977020 168.973892,480.550079 
	C164.791183,481.134369 160.473755,480.876831 156.219620,480.786133 
	C153.126297,480.720184 150.039993,480.325989 147.050888,479.742676 
	C147.764603,477.662384 148.377991,475.917480 148.991364,474.172607 
z"/>
<path fill="#B9433E" opacity="1.000000" stroke="none" 
	d="
M158.947983,452.403107 
	C162.132202,450.616821 162.085587,448.494385 160.222092,445.927673 
	C159.477097,444.901520 158.859390,443.782990 158.423248,442.459900 
	C161.577621,444.814789 165.740036,446.888245 167.116898,450.140869 
	C169.216919,455.101837 172.867645,457.558960 176.983521,460.395447 
	C178.362167,463.181519 179.719604,465.599121 181.022827,468.068787 
	C180.968613,468.120850 180.864502,468.229309 180.460815,468.206299 
	C178.028885,468.491455 176.000641,468.799622 173.972382,469.107788 
	C168.981262,463.655060 163.990128,458.202301 158.947983,452.403107 
M164.193405,452.118317 
	C164.050217,452.090424 163.907043,452.062561 163.763870,452.034637 
	C163.862549,452.101837 163.961227,452.169037 164.193405,452.118317 
z"/>
<path fill="#B25452" opacity="1.000000" stroke="none" 
	d="
M336.637512,395.088562 
	C337.033569,396.171539 337.027466,397.199310 337.031433,398.613525 
	C333.383942,399.869354 329.399445,400.096832 326.143829,401.755249 
	C320.990143,404.380524 320.548676,409.803589 319.945312,414.995636 
	C319.710266,417.017975 318.433807,418.919342 317.255432,420.968933 
	C316.328674,417.298431 315.778198,413.534729 315.080780,409.453125 
	C316.941406,405.662598 318.948975,402.190063 321.445740,398.363495 
	C325.623840,396.935822 329.312714,395.862213 333.001556,394.788574 
	C334.079468,394.870148 335.157410,394.951752 336.637512,395.088562 
z"/>
<path fill="#746C6E" opacity="1.000000" stroke="none" 
	d="
M264.215515,514.435181 
	C265.186493,513.020935 266.324524,511.111389 267.677582,510.944458 
	C276.526611,509.852600 285.412415,508.900604 294.312164,508.533936 
	C295.792053,508.473022 297.399139,511.500092 298.957977,513.471741 
	C287.473022,514.144165 275.977509,514.445068 264.215515,514.435181 
z"/>
<path fill="#C2504F" opacity="1.000000" stroke="none" 
	d="
M184.479156,512.896179 
	C184.615219,511.429840 185.215683,510.022858 185.918930,508.042603 
	C186.035172,507.299622 186.048630,507.129883 186.492737,506.960510 
	C188.933350,506.981445 190.943329,507.002014 193.202393,507.287170 
	C195.992188,507.669769 198.532883,507.787720 201.509583,507.902191 
	C204.252960,507.906860 206.560318,507.915009 208.867691,507.923157 
	C211.248489,507.958557 213.629303,507.993988 216.476410,508.446198 
	C216.955048,510.520599 216.967392,512.178162 216.979736,513.835754 
	C206.300995,513.542358 195.622269,513.248901 184.479156,512.896179 
z"/>
<path fill="#6E6665" opacity="1.000000" stroke="none" 
	d="
M227.055649,477.363770 
	C228.372055,476.099426 229.855438,475.141724 231.656769,474.096680 
	C236.587601,479.448395 241.154282,484.927643 245.833832,490.308746 
	C248.013336,492.814972 249.856171,495.232330 247.129990,498.814301 
	C242.397125,493.930878 237.889572,488.710999 233.267838,483.594299 
	C231.380188,481.504578 229.245117,479.638336 227.055649,477.363770 
z"/>
<path fill="#A34443" opacity="1.000000" stroke="none" 
	d="
M161.594604,544.091064 
	C162.308273,545.252686 162.608002,546.343262 162.662170,547.878296 
	C158.407394,550.273926 154.498306,552.280579 156.971161,558.231384 
	C156.548157,559.990601 156.277344,561.417419 156.006546,562.844177 
	C151.330795,561.578247 148.716125,557.968811 149.074844,553.275085 
	C149.416016,548.810852 153.190292,544.728088 157.722687,544.045593 
	C158.851074,543.875732 160.026749,544.020081 161.594604,544.091064 
z"/>
<path fill="#BE4540" opacity="1.000000" stroke="none" 
	d="
M194.026733,558.026367 
	C191.722595,559.727539 189.418472,561.428711 187.061203,563.486694 
	C180.648788,563.886719 174.289505,563.929871 167.424576,563.542114 
	C166.611053,561.410645 166.303207,559.710144 166.464447,558.004272 
	C175.964615,558.008057 184.995682,558.017212 194.026733,558.026367 
z"/>
<path fill="#BB4D51" opacity="1.000000" stroke="none" 
	d="
M297.005829,483.080048 
	C298.774139,485.326294 300.542450,487.572540 302.661499,490.144806 
	C303.012238,490.470825 303.057281,490.910339 303.124023,491.232178 
	C304.115234,492.704163 305.039703,493.854309 306.096497,495.245728 
	C306.499359,495.964874 306.769958,496.442657 307.049500,497.308655 
	C307.659637,499.532257 308.367981,501.341064 308.832245,503.210480 
	C309.308197,505.126923 309.545380,507.102600 309.887024,509.052368 
	C304.001068,501.276398 298.115082,493.500458 292.300751,485.141602 
	C293.916901,484.065796 295.461365,483.572906 297.005829,483.080048 
z"/>
<path fill="#A34443" opacity="1.000000" stroke="none" 
	d="
M390.427826,563.082642 
	C389.097015,561.599121 388.138336,560.077148 387.064178,558.253662 
	C386.948669,557.952209 386.965210,557.936401 387.241516,557.835876 
	C388.015137,557.160583 388.512390,556.585815 389.181641,555.717163 
	C388.566284,553.603943 387.778961,551.784485 387.032227,549.621094 
	C387.714691,547.577759 388.356567,545.878418 388.998444,544.179138 
	C393.990356,545.436096 397.057587,548.221375 397.005127,553.770691 
	C396.962372,558.293030 395.581329,561.766235 390.427826,563.082642 
z"/>
<path fill="#B9433E" opacity="1.000000" stroke="none" 
	d="
M136.067123,506.949097 
	C132.879028,507.255280 131.245117,506.096100 130.726044,502.646576 
	C130.520996,501.284027 128.255493,500.231537 126.548538,499.016022 
	C126.188622,496.476196 126.208382,493.958221 126.867966,491.313263 
	C133.034332,491.670715 131.799301,486.937042 133.112442,483.780823 
	C134.188400,482.319702 135.145370,481.155823 136.515747,479.995972 
	C138.306808,480.043732 139.684448,480.087494 140.946686,480.442078 
	C138.655182,483.405029 135.866333,485.764648 134.431076,488.770508 
	C131.481506,494.947845 133.206436,501.088989 136.067123,506.949097 
z"/>
<path fill="#706A6A" opacity="1.000000" stroke="none" 
	d="
M408.341125,380.935364 
	C405.852203,375.541504 408.949188,371.368042 411.606781,367.010254 
	C412.562469,365.443207 413.687622,363.538483 413.584717,361.858307 
	C413.367584,358.312622 414.791443,356.981018 418.450623,357.024170 
	C417.413971,365.786652 414.917633,374.088928 408.341125,380.935364 
z"/>
<path fill="#B9433E" opacity="1.000000" stroke="none" 
	d="
M384.971161,425.919495 
	C384.056335,427.352814 383.141510,428.786102 382.121094,430.521667 
	C377.940826,431.124603 373.866150,431.425232 369.331604,431.582428 
	C367.235962,429.968597 365.600220,428.498230 364.170929,426.709351 
	C366.688812,425.980652 369.000793,425.228973 371.311554,425.232697 
	C375.865112,425.240051 380.417999,425.666412 384.971161,425.919495 
z"/>
<path fill="#BE4540" opacity="1.000000" stroke="none" 
	d="
M388.533752,544.115662 
	C388.356567,545.878418 387.714691,547.577759 386.624268,549.542297 
	C380.448578,549.529907 374.721497,549.252258 368.994385,548.974609 
	C368.993896,548.534790 368.993408,548.094910 368.990967,547.325073 
	C369.903290,546.232056 370.817566,545.468933 371.852386,544.430847 
	C377.338287,544.121277 382.703674,544.086731 388.533752,544.115662 
z"/>
<path fill="#B34846" opacity="1.000000" stroke="none" 
	d="
M310.043396,509.366852 
	C309.545380,507.102600 309.308197,505.126923 308.832245,503.210480 
	C308.367981,501.341064 307.659637,499.532257 307.365967,497.423828 
	C311.142517,500.731354 314.611542,504.311890 318.080566,507.892395 
	C317.714417,509.381836 317.348267,510.871277 316.962769,512.748169 
	C314.695496,511.984222 312.447632,510.832794 310.043396,509.366852 
z"/>
<path fill="#C74C4C" opacity="1.000000" stroke="none" 
	d="
M141.062103,480.131287 
	C139.684448,480.087494 138.306808,480.043732 136.359283,479.672485 
	C135.509781,478.191467 135.230148,477.037933 134.950531,475.884369 
	C139.341888,475.272278 143.733231,474.660156 148.557983,474.110352 
	C148.377991,475.917480 147.764603,477.662384 146.631180,479.735107 
	C144.428131,480.085724 142.745117,480.108490 141.062103,480.131287 
z"/>
<path fill="#BC4747" opacity="1.000000" stroke="none" 
	d="
M382.939423,400.930267 
	C384.700592,400.288574 386.435211,399.199005 388.228119,399.092743 
	C392.840820,398.819305 397.509491,399.284332 402.093414,398.827911 
	C404.060547,398.632080 405.873077,396.883270 407.873352,395.502136 
	C408.430817,395.120117 408.870789,395.075989 409.653076,395.478149 
	C410.336456,397.944061 410.677582,399.963654 411.018707,401.983246 
	C411.018707,401.983246 410.969055,402.029449 410.535889,401.986694 
	C401.048309,401.606079 391.993866,401.268188 382.939423,400.930267 
z"/>
<path fill="#A34443" opacity="1.000000" stroke="none" 
	d="
M411.260651,402.168976 
	C410.677582,399.963654 410.336456,397.944061 409.982056,395.530731 
	C416.760315,394.929993 418.804321,396.679474 418.409912,402.834351 
	C415.903778,402.815063 413.703186,402.584900 411.260651,402.168976 
z"/>
<path fill="#A34443" opacity="1.000000" stroke="none" 
	d="
M297.078827,482.725403 
	C295.461365,483.572906 293.916901,484.065796 292.146271,484.835815 
	C291.153381,482.712219 289.312347,479.949371 289.960693,478.025452 
	C290.476959,476.493439 294.032257,475.985535 296.645935,475.086304 
	C297.086212,477.556671 297.119019,479.963745 297.078827,482.725403 
z"/>
<path fill="#B84745" opacity="1.000000" stroke="none" 
	d="
M165.995346,558.009583 
	C166.303207,559.710144 166.611053,561.410645 166.960022,563.478638 
	C163.583618,563.643250 160.166107,563.440369 156.377563,563.040833 
	C156.277344,561.417419 156.548157,559.990601 157.406830,558.244873 
	C160.661575,557.953857 163.328461,557.981689 165.995346,558.009583 
z"/>
<path fill="#6E6665" opacity="1.000000" stroke="none" 
	d="
M252.097382,504.407532 
	C253.266037,502.393250 254.791275,499.978882 256.973877,502.471924 
	C259.137299,504.943054 264.419189,506.672974 260.160553,511.836121 
	C257.342682,509.608063 254.796524,507.153595 252.097382,504.407532 
z"/>
<path fill="#DB5E58" opacity="1.000000" stroke="none" 
	d="
M174.111969,469.394226 
	C176.000641,468.799622 178.028885,468.491455 180.636246,468.475372 
	C181.293137,471.193542 188.378647,473.769104 181.060257,476.037384 
	C179.208298,474.805847 177.356323,473.574341 175.219696,472.166626 
	C174.707199,471.220520 174.479385,470.450592 174.111969,469.394226 
z"/>
<path fill="#A34443" opacity="1.000000" stroke="none" 
	d="
M134.558395,475.923035 
	C135.230148,477.037933 135.509781,478.191467 135.945862,479.668488 
	C135.145370,481.155823 134.188400,482.319702 132.750107,483.681000 
	C130.801010,483.565002 129.333252,483.251587 127.865494,482.938202 
	C127.825562,478.679810 129.421249,475.898621 134.558395,475.923035 
z"/>
<path fill="#B34D4A" opacity="1.000000" stroke="none" 
	d="
M217.344757,513.888916 
	C216.967392,512.178162 216.955048,510.520599 216.920197,508.450409 
	C218.242798,505.281097 219.766449,503.245941 222.842255,506.848816 
	C223.488007,511.090302 221.149872,512.945312 217.344757,513.888916 
z"/>
<path fill="#C74C4C" opacity="1.000000" stroke="none" 
	d="
M363.964478,427.027863 
	C365.600220,428.498230 367.235962,429.968597 368.960815,431.780396 
	C369.049957,432.121826 368.973663,432.558990 368.908508,432.771118 
	C366.431793,432.767548 364.020294,432.551819 361.311523,431.763367 
	C361.997681,429.803009 362.981079,428.415436 363.964478,427.027863 
z"/>
<path fill="#BE5046" opacity="1.000000" stroke="none" 
	d="
M127.547714,483.196167 
	C129.333252,483.251587 130.801010,483.565002 132.631104,483.978210 
	C131.799301,486.937042 133.034332,491.670715 127.195381,491.061768 
	C126.998627,488.442871 127.114281,485.948486 127.547714,483.196167 
z"/>
<path fill="#A34443" opacity="1.000000" stroke="none" 
	d="
M410.331848,429.919373 
	C410.255981,427.019562 410.552490,424.181610 410.917755,420.685730 
	C412.927246,422.121674 414.089600,422.952301 415.542542,423.876007 
	C415.396118,427.058838 414.349792,429.628754 410.331848,429.919373 
z"/>
<path fill="#7B7372" opacity="1.000000" stroke="none" 
	d="
M261.098236,588.416382 
	C261.260345,586.985413 261.593689,585.830505 261.962555,584.312988 
	C266.148895,584.071289 268.676849,585.511902 267.047302,590.607910 
	C265.946655,590.964844 264.931213,590.977966 263.534241,590.985352 
	C262.524933,590.217285 261.897186,589.454834 261.098236,588.416382 
z"/>
<path fill="#DB5E58" opacity="1.000000" stroke="none" 
	d="
M358.038757,477.973022 
	C356.794952,476.797668 355.551147,475.622314 354.126648,474.177155 
	C353.945984,473.907379 354.039001,473.457520 354.101166,473.236115 
	C356.533020,473.294373 358.902679,473.574005 361.773651,474.228912 
	C362.796265,478.158295 360.122620,477.694855 358.038757,477.973022 
z"/>
<path fill="#000000" opacity="1.000000" stroke="none" 
	d="
M349.031982,310.174927 
	C328.646454,310.141388 308.260925,310.107849 286.991608,310.088013 
	C283.420258,309.782318 280.732727,309.462952 277.673920,308.950500 
	C273.846771,308.797974 270.390869,308.838501 266.526855,308.925873 
	C263.439148,309.380096 260.759552,309.787476 257.644104,310.126770 
	C255.182709,310.116028 253.157120,310.173401 250.658936,310.162781 
	C232.114014,310.110352 214.041702,310.125916 195.671875,309.932312 
	C194.254181,306.993835 193.680237,304.307648 196.400330,301.736633 
	C198.416901,301.410706 200.029419,301.013245 201.642227,301.012085 
	C249.408966,300.977509 297.175720,300.982208 344.942474,300.981232 
	C345.774628,300.981232 346.742432,300.714813 347.411804,301.046814 
	C349.005859,301.837402 351.428314,302.660858 351.757019,303.927521 
	C352.351746,306.219208 353.030609,309.481262 349.031982,310.174927 
z"/>
<path fill="#7B7372" opacity="1.000000" stroke="none" 
	d="
M293.008759,342.053101 
	C311.307220,342.044830 329.605743,342.015900 347.904175,342.038940 
	C354.827332,342.047638 355.931702,343.210999 356.001709,350.220337 
	C356.019989,352.049469 356.166687,353.905945 355.917725,355.703217 
	C355.387878,359.528107 353.190247,361.225647 349.275726,360.326111 
	C348.001465,360.033356 346.718689,359.481812 345.449280,359.508087 
	C324.080963,359.950043 302.716400,360.671570 281.346344,360.906769 
	C258.748260,361.155487 236.145203,360.966766 213.544357,360.945282 
	C208.416229,360.940399 203.221115,361.308472 198.186722,360.592133 
	C195.426315,360.199341 191.864136,358.532898 190.560913,356.322205 
	C188.228806,352.366211 190.343811,344.851471 193.790558,342.495300 
	C195.173111,344.061432 196.084641,345.445038 196.661331,347.033203 
	C193.484009,352.860291 194.596283,354.985199 200.496887,354.987488 
	C248.907211,355.006317 297.317535,355.007172 345.727875,355.001038 
	C352.319427,355.000214 352.974365,354.053619 351.076599,346.836975 
	C332.103912,346.836975 312.994598,346.836975 293.804382,346.497955 
	C293.485229,344.790344 293.246979,343.421722 293.008759,342.053101 
z"/>
<path fill="#787071" opacity="1.000000" stroke="none" 
	d="
M349.129028,310.486237 
	C353.030609,309.481262 352.351746,306.219208 351.757019,303.927521 
	C351.428314,302.660858 349.005859,301.837402 347.411804,301.046814 
	C346.742432,300.714813 345.774628,300.981232 344.942474,300.981232 
	C297.175720,300.982208 249.408966,300.977509 201.642227,301.012085 
	C200.029419,301.013245 198.416901,301.410706 196.365051,301.382874 
	C195.618698,299.750488 195.311523,298.358673 195.004349,296.966858 
	C245.789871,296.982635 296.575470,296.964905 347.360657,297.106812 
	C350.076752,297.114380 354.911285,298.080658 355.125244,299.260010 
	C355.927765,303.683228 356.490448,308.962891 354.724548,312.812012 
	C352.935242,316.712036 350.612335,313.041718 349.129028,310.486237 
z"/>
<path fill="#655F5F" opacity="1.000000" stroke="none" 
	d="
M195.969360,310.141541 
	C214.041702,310.125916 232.114014,310.110352 250.648621,310.585022 
	C250.764587,314.348053 250.418289,317.620850 249.601181,320.917664 
	C231.418945,320.973114 213.707504,321.004547 195.663940,321.010101 
	C194.890427,320.933380 194.449066,320.882568 194.007690,320.831757 
	C194.004120,318.833069 194.000534,316.834351 194.213104,314.174377 
	C194.942627,312.389252 195.455994,311.265411 195.969360,310.141541 
z"/>
<path fill="#7B7372" opacity="1.000000" stroke="none" 
	d="
M293.636505,321.159607 
	C297.094818,320.790436 300.553314,320.104401 304.011414,320.106293 
	C319.959229,320.115143 335.907074,320.306458 351.854462,320.474640 
	C352.638519,320.482880 354.055573,320.794830 354.104034,321.123596 
	C354.762115,325.588928 355.681671,330.105682 355.450958,334.553406 
	C355.387421,335.777771 351.801178,337.658966 349.741516,337.786377 
	C342.942017,338.206940 336.101440,337.965210 329.276611,337.973633 
	C318.123749,337.987396 306.970917,337.997986 295.345093,337.610138 
	C294.907196,335.833954 294.942261,334.457550 295.377472,333.046082 
	C298.817444,333.003540 301.858856,332.929077 304.896851,333.000214 
	C318.143280,333.310333 331.388062,333.695007 344.635315,333.957642 
	C346.221436,333.989075 348.288147,333.954590 349.295410,333.034637 
	C350.623810,331.821411 351.687622,329.724213 351.755920,327.963989 
	C351.792755,327.014252 349.589935,325.229462 348.274109,325.102631 
	C342.000793,324.497833 335.683685,324.043640 329.384735,324.073578 
	C317.804260,324.128601 306.225586,324.560608 294.572632,324.526306 
	C294.211578,323.197937 293.924042,322.178772 293.636505,321.159607 
z"/>
<path fill="#B25452" opacity="1.000000" stroke="none" 
	d="
M278.045166,309.143585 
	C280.732727,309.462952 283.420258,309.782318 286.523560,310.156219 
	C287.624878,313.233795 288.310394,316.256836 289.002563,320.056274 
	C288.821960,324.258850 290.578705,325.857452 293.814087,326.364014 
	C293.875244,328.751404 293.997498,330.783264 293.818573,333.007812 
	C288.395691,336.363007 286.774994,341.212891 286.553009,346.971069 
	C284.578217,347.772034 282.899414,348.401733 281.354370,349.269592 
	C275.717102,352.435883 270.102020,352.886658 264.252014,349.737762 
	C261.998505,348.524780 259.472717,347.817657 257.052643,346.453979 
	C257.102722,344.322205 257.171143,342.616516 257.584106,340.967407 
	C261.883789,342.665283 265.704773,344.996796 269.823334,345.797241 
	C277.278320,347.246155 285.765411,341.486694 287.692108,334.506287 
	C290.082397,325.846039 286.359741,317.908264 278.044189,313.555359 
	C278.037598,311.817383 278.041382,310.480499 278.045166,309.143585 
z"/>
<path fill="#787071" opacity="1.000000" stroke="none" 
	d="
M196.996185,346.828613 
	C196.084641,345.445038 195.173111,344.061432 194.135406,342.399475 
	C213.031281,342.092773 232.053314,342.064423 251.560211,342.433685 
	C252.055115,344.171295 252.065140,345.511322 251.600586,346.903046 
	C233.082718,346.912720 215.039459,346.870667 196.996185,346.828613 
z"/>
<path fill="#787071" opacity="1.000000" stroke="none" 
	d="
M250.958359,337.971741 
	C232.827744,337.755188 214.697144,337.538635 196.277161,336.805450 
	C195.990707,335.237732 195.993622,334.186584 196.390457,333.085754 
	C200.190903,333.024231 203.598511,332.951508 207.003784,333.011322 
	C220.975357,333.256683 234.946213,333.542450 249.157913,334.053009 
	C249.918442,335.519012 250.438400,336.745392 250.958359,337.971741 
z"/>
<path fill="#787071" opacity="1.000000" stroke="none" 
	d="
M319.864868,393.445740 
	C318.240875,395.312958 316.659515,396.797852 315.037231,398.640137 
	C306.598846,398.346222 298.201385,397.694916 289.403625,397.029358 
	C289.207275,393.713196 291.394592,393.072205 294.176849,393.003204 
	C298.481659,392.896454 302.816406,392.904053 307.071014,392.347565 
	C309.032013,392.091095 310.833374,390.614258 312.868774,389.379761 
	C315.087311,389.368347 317.144226,389.667877 319.598083,389.966858 
	C319.965881,390.998657 319.936676,392.031036 319.864868,393.445740 
z"/>
<path fill="#7B7372" opacity="1.000000" stroke="none" 
	d="
M195.671875,309.932343 
	C195.455994,311.265411 194.942627,312.389252 194.212158,313.744934 
	C193.355209,313.975891 192.471252,314.250305 192.112610,313.932281 
	C187.697571,310.017303 191.714493,304.952393 190.533554,300.497437 
	C190.325287,299.711792 192.937576,298.178467 194.625824,296.978638 
	C195.311523,298.358673 195.618698,299.750488 195.961136,301.496063 
	C193.680237,304.307648 194.254181,306.993835 195.671875,309.932343 
z"/>
<path fill="#7B7372" opacity="1.000000" stroke="none" 
	d="
M195.996536,333.135468 
	C195.993622,334.186584 195.990707,335.237732 195.980164,336.685822 
	C190.995514,337.460663 189.237198,334.999969 190.438065,330.415863 
	C191.261993,327.270660 187.904831,322.798187 193.656219,320.950378 
	C194.449066,320.882568 194.890427,320.933380 195.664871,321.391022 
	C195.997543,322.816986 195.997162,323.836151 195.670319,325.102997 
	C195.561401,327.945618 195.778976,330.540558 195.996536,333.135468 
z"/>
<path fill="#895555" opacity="1.000000" stroke="none" 
	d="
M286.910370,346.909119 
	C286.774994,341.212891 288.395691,336.363007 294.037079,333.063141 
	C294.556732,332.925751 294.977295,333.081146 294.977295,333.081146 
	C294.942261,334.457550 294.907196,335.833954 294.868103,337.626099 
	C294.282928,339.163879 293.701752,340.285950 293.064667,341.730560 
	C293.246979,343.421722 293.485229,344.790344 293.382324,346.569763 
	C290.997620,346.956726 288.953979,346.932922 286.910370,346.909119 
z"/>
<path fill="#895555" opacity="1.000000" stroke="none" 
	d="
M251.103958,338.293152 
	C250.438400,336.745392 249.918442,335.519012 249.295166,333.797241 
	C249.750839,333.142517 250.309845,332.983185 251.124390,333.049988 
	C253.232407,335.194763 255.084869,337.113342 256.977783,339.346649 
	C257.092041,340.077850 257.165833,340.494354 257.239594,340.910858 
	C257.171143,342.616516 257.102722,344.322205 256.635498,346.517120 
	C254.849518,346.954681 253.462341,346.903015 252.075165,346.851318 
	C252.065140,345.511322 252.055115,344.171295 252.029770,342.430634 
	C251.759491,340.891479 251.504517,339.753021 251.103958,338.293152 
z"/>
<path fill="#B95959" opacity="1.000000" stroke="none" 
	d="
M293.875183,326.008514 
	C290.578705,325.857452 288.821960,324.258850 289.003540,320.450378 
	C290.342560,320.341095 291.687317,320.614044 293.334290,321.023315 
	C293.924042,322.178772 294.211578,323.197937 294.402771,324.688477 
	C294.111664,325.416809 293.967926,325.699707 293.875183,326.008514 
z"/>
<path fill="#7B7372" opacity="1.000000" stroke="none" 
	d="
M265.394928,423.867432 
	C264.890930,424.045105 264.681152,424.072449 264.194580,423.705231 
	C264.329224,420.871704 264.740692,418.432678 265.453094,415.849915 
	C267.825958,413.105896 269.897858,410.505615 271.969757,407.905365 
	C272.748077,408.253235 273.526367,408.601105 274.623993,408.995972 
	C274.061951,410.907074 273.377380,412.900330 272.256439,414.607025 
	C270.203308,417.733002 267.892548,420.689789 265.394928,423.867432 
z"/>
<path fill="#6E6665" opacity="1.000000" stroke="none" 
	d="
M251.162872,496.865540 
	C251.567917,497.275116 251.768311,497.724060 251.968689,498.172974 
	C251.693848,498.231018 251.419022,498.289062 251.144180,498.347107 
	C251.082199,497.866364 251.020218,497.385620 251.162872,496.865540 
z"/>
<path fill="#6E6665" opacity="1.000000" stroke="none" 
	d="
M268.782043,673.968872 
	C268.903870,673.855286 269.021210,673.832031 269.138519,673.808777 
	C269.018158,673.892212 268.897827,673.975708 268.782043,673.968872 
z"/>
<path fill="#B95959" opacity="1.000000" stroke="none" 
	d="
M205.973526,399.072815 
	C205.024078,397.835449 204.074646,396.598083 203.097275,394.995911 
	C208.838928,394.420319 214.607605,394.064911 220.378296,394.028656 
	C232.620743,393.951782 244.864243,394.041168 257.573608,394.507721 
	C258.014374,396.306671 257.988831,397.660248 257.498779,399.004944 
	C240.014023,399.021637 222.993774,399.047211 205.973526,399.072815 
z"/>
<path fill="#000000" opacity="1.000000" stroke="none" 
	d="
M272.115845,407.601288 
	C269.897858,410.505615 267.825958,413.105896 265.394897,415.402161 
	C265.308350,410.395966 265.580994,405.693817 265.918091,400.601746 
	C265.618073,398.256134 265.253510,396.300385 264.888977,394.344635 
	C270.096039,394.344635 275.303070,394.344635 281.477844,394.344635 
	C278.159882,399.007935 275.210907,403.152557 272.115845,407.601288 
z"/>
<path fill="#A34443" opacity="1.000000" stroke="none" 
	d="
M264.467407,394.292633 
	C265.253510,396.300385 265.618073,398.256134 265.516602,400.593689 
	C263.711914,401.010590 262.373260,401.045746 260.775482,400.910278 
	C259.665314,400.164368 258.814301,399.589111 257.963287,399.013855 
	C257.988831,397.660248 258.014374,396.306671 258.043579,394.551270 
	C260.046753,394.179871 262.046295,394.210236 264.467407,394.292633 
z"/>
<path fill="#CE3B36" opacity="1.000000" stroke="none" 
	d="
M166.464447,558.004272 
	C163.328461,557.981689 160.661575,557.953857 157.559021,557.912476 
	C154.498306,552.280579 158.407394,550.273926 162.741699,548.208374 
	C165.356522,548.397827 167.646088,548.965332 169.936020,548.966797 
	C235.976776,549.009216 302.017548,548.994934 368.526367,548.982178 
	C374.721497,549.252258 380.448578,549.529907 386.583649,549.886353 
	C387.778961,551.784485 388.566284,553.603943 388.910828,555.828125 
	C387.967133,556.800781 387.466156,557.368591 386.965210,557.936401 
	C386.965210,557.936401 386.948669,557.952209 386.931946,557.946716 
	C373.582794,557.963196 360.250397,557.985168 346.446655,558.018066 
	C308.633728,558.019897 271.292175,558.010803 233.036652,557.996704 
	C229.742920,557.998779 227.363144,558.005981 224.983353,558.013062 
	C223.279221,558.015503 221.575104,558.017944 218.974945,558.012939 
	C212.045364,558.012573 206.011810,558.019714 199.978241,558.026855 
	C198.276978,558.023193 196.575714,558.019592 194.450592,558.021118 
	C184.995682,558.017212 175.964615,558.008057 166.464447,558.004272 
z"/>
<path fill="#BE4540" opacity="1.000000" stroke="none" 
	d="
M200.196503,558.339478 
	C206.011810,558.019714 212.045364,558.012573 218.549072,558.015747 
	C212.927536,561.498718 206.687103,560.549438 200.196503,558.339478 
z"/>
<path fill="#BE4540" opacity="1.000000" stroke="none" 
	d="
M225.181061,558.313354 
	C227.363144,558.005981 229.742920,557.998779 232.568939,557.999023 
	C230.682022,560.879456 228.093262,560.537415 225.181061,558.313354 
z"/>
<path fill="#D63A34" opacity="1.000000" stroke="none" 
	d="
M357.843842,478.283203 
	C360.122620,477.694855 362.796265,478.158295 362.157257,474.327209 
	C360.900787,471.415253 360.203705,468.454529 358.543823,466.203827 
	C352.578033,458.114685 346.329559,450.231842 340.103607,442.337524 
	C336.190125,437.375458 332.257172,432.417267 328.094879,427.665894 
	C323.375275,422.278320 321.364807,413.641541 325.032684,407.758942 
	C326.698975,405.086548 330.602539,403.482513 333.813812,402.204041 
	C336.348663,401.194916 339.376770,401.424866 343.003357,401.147980 
	C354.231537,401.106476 364.642120,401.021515 375.052734,400.936554 
	C377.391754,400.945190 379.730804,400.953857 382.504639,400.946411 
	C391.993866,401.268188 401.048309,401.606079 410.511169,402.009888 
	C410.699829,407.372681 410.585266,412.676727 410.222748,417.963806 
	C409.987183,421.399506 407.875214,423.479004 404.489685,423.850281 
	C398.244843,424.535126 391.976837,425.009155 385.344849,425.745239 
	C380.417999,425.666412 375.865112,425.240051 371.311554,425.232697 
	C369.000793,425.228973 366.688812,425.980652 364.170929,426.709351 
	C362.981079,428.415436 361.997681,429.803009 361.026215,431.567383 
	C363.024200,435.455078 364.576935,439.315430 367.075012,442.413483 
	C375.704742,453.115845 384.876373,463.385284 393.379700,474.183350 
	C396.264191,477.846252 398.833618,482.384094 399.704071,486.879028 
	C401.672363,497.043121 395.467468,504.510101 385.035614,506.000549 
	C383.894257,506.163635 382.770966,506.453369 381.296082,506.871399 
	C379.910278,507.050964 378.867706,507.043396 377.005676,507.006561 
	C372.910034,506.667297 369.638214,506.163147 366.356689,506.088684 
	C359.966827,505.943634 353.564178,505.858673 347.181854,506.118805 
	C344.387878,506.232635 341.630890,507.255371 338.857117,507.865356 
	C334.560394,507.895355 330.263672,507.925385 325.234161,507.807068 
	C323.313721,507.752808 322.126068,507.846893 320.938416,507.940979 
	C320.222870,507.927551 319.507355,507.914093 318.436188,507.896515 
	C314.611542,504.311890 311.142517,500.731354 307.356995,497.035645 
	C306.769958,496.442657 306.499359,495.964874 306.068909,494.901367 
	C304.958466,493.180542 304.007874,492.045441 303.057281,490.910339 
	C303.057281,490.910339 303.012238,490.470825 302.979065,490.252716 
	C299.370605,481.355927 299.623108,481.002533 309.453003,480.999725 
	C321.877838,480.996216 334.306793,481.176056 346.724915,480.886780 
	C350.382050,480.801575 354.008453,479.394623 357.843842,478.283203 
z"/>
<path fill="#BC4747" opacity="1.000000" stroke="none" 
	d="
M374.825806,400.630402 
	C364.642120,401.021515 354.231537,401.106476 343.415344,401.098633 
	C343.009888,400.835815 343.010040,400.665802 343.012573,400.240540 
	C351.692291,399.659668 360.367950,399.247925 369.048340,399.077423 
	C370.889679,399.041260 372.748260,399.885590 374.825806,400.630402 
z"/>
<path fill="#D73A33" opacity="1.000000" stroke="none" 
	d="
M180.954132,476.353638 
	C188.378647,473.769104 181.293137,471.193542 181.039917,468.498413 
	C180.864502,468.229309 180.968613,468.120850 181.329712,467.934570 
	C183.100388,466.899750 184.629898,466.195770 185.881775,465.157135 
	C186.890015,464.320557 187.562637,463.079437 188.384186,462.017792 
	C187.346054,461.338196 186.354843,460.180542 185.260559,460.073181 
	C182.519348,459.804169 179.731445,460.010956 176.962280,460.026917 
	C172.867645,457.558960 169.216919,455.101837 167.116898,450.140869 
	C165.740036,446.888245 161.577621,444.814789 158.325745,442.129303 
	C157.988724,442.045349 157.985123,442.015137 157.856461,441.939789 
	C157.453995,441.775726 157.192108,441.807526 156.942154,441.959839 
	C156.682846,441.483856 156.423523,441.007874 156.003113,439.933655 
	C154.236984,437.213776 152.631943,435.092133 151.004761,432.733093 
	C150.982620,432.495697 150.928818,432.021881 150.860062,431.664612 
	C150.184494,429.795868 149.899551,428.021362 148.915985,426.817780 
	C144.304382,421.175018 143.187790,414.887543 144.877441,407.948639 
	C145.149155,407.445465 145.420853,406.942261 146.234283,406.185028 
	C150.728653,405.393585 154.823318,405.158813 157.113052,401.078796 
	C160.748276,401.071442 164.383514,401.064117 168.672791,401.343994 
	C170.381256,401.946259 171.440582,402.545532 172.489212,402.527344 
	C177.137985,402.446716 181.782043,402.124573 186.430771,402.007111 
	C200.224243,401.658630 214.017914,401.239105 227.813980,401.109772 
	C233.761307,401.054047 239.713211,401.680786 245.666199,401.917542 
	C247.426071,401.987549 249.348724,402.201202 250.932312,401.623749 
	C254.743973,400.233795 257.441650,401.381866 257.942291,405.097321 
	C259.538788,416.945282 255.123016,426.933197 248.074005,435.977081 
	C244.117920,441.052734 239.804245,445.850159 235.637650,450.760986 
	C233.928513,452.775421 232.182343,454.758423 229.753876,457.563171 
	C228.923401,454.049683 228.446106,452.030426 227.986938,449.684692 
	C228.027283,448.922852 228.049469,448.487457 228.369476,447.840332 
	C229.438904,443.120544 230.956299,438.570801 230.707535,434.119781 
	C230.553787,431.369019 228.306793,427.815643 225.931747,426.332825 
	C222.694092,424.311462 218.411224,423.556763 214.468811,426.939209 
	C209.676529,426.949280 205.344330,426.959991 200.649261,426.789795 
	C196.411331,426.149323 192.394440,424.513306 188.963684,428.201355 
	C188.935791,428.432159 188.880432,428.893890 188.534424,428.946777 
	C187.157196,430.280182 186.125977,431.560699 185.094742,432.841217 
	C186.542587,435.627380 187.886459,438.475433 189.489197,441.169464 
	C190.135101,442.255188 191.760269,442.825378 192.239136,443.933075 
	C197.213211,455.438690 207.168365,463.237549 214.062180,473.324738 
	C216.767471,477.283112 218.583817,480.933716 217.786514,485.728638 
	C217.518448,487.340729 217.521896,489.042999 217.687988,490.674866 
	C218.687943,500.499664 217.477478,502.960785 209.071594,507.641998 
	C206.560318,507.915009 204.252960,507.906860 201.148132,507.729980 
	C197.884872,507.381714 195.419083,507.202148 192.953293,507.022583 
	C190.943329,507.002014 188.933350,506.981445 186.304504,506.698425 
	C185.262512,506.200104 184.843201,505.765564 184.415741,505.757385 
	C172.520538,505.529602 160.624786,505.290100 148.728256,505.233521 
	C147.460541,505.227539 146.187531,506.332703 144.916977,506.922363 
	C142.260147,506.930725 139.603333,506.939056 136.506805,506.948242 
	C133.206436,501.088989 131.481506,494.947845 134.431076,488.770508 
	C135.866333,485.764648 138.655182,483.405029 140.946686,480.442078 
	C142.745117,480.108490 144.428131,480.085724 146.530853,480.070496 
	C150.039993,480.325989 153.126297,480.720184 156.219620,480.786133 
	C160.473755,480.876831 164.791183,481.134369 168.973892,480.550079 
	C173.075699,479.977020 177.917404,481.033478 180.954132,476.353638 
z"/>
<path fill="#000000" opacity="1.000000" stroke="none" 
	d="
M222.985596,465.087402 
	C222.991776,467.456482 222.997940,469.825562 223.004150,472.640320 
	C220.617569,470.500946 217.993851,468.094513 215.887146,465.298523 
	C208.496231,455.489197 201.283340,445.545715 193.972809,435.090210 
	C193.942749,434.527252 194.041977,434.090729 194.506592,434.064270 
	C203.649323,433.972534 212.327423,433.907288 221.290192,433.965912 
	C222.098038,434.714417 222.621231,435.338989 223.068558,436.427429 
	C222.990341,446.289978 222.987976,455.688690 222.985596,465.087402 
z"/>
<path fill="#DB5E58" opacity="1.000000" stroke="none" 
	d="
M194.041977,434.090729 
	C194.041977,434.090729 193.942749,434.527252 193.879852,434.742004 
	C191.138626,434.339111 188.460297,433.721527 185.438354,432.972595 
	C186.125977,431.560699 187.157196,430.280182 188.873291,429.060364 
	C191.052765,430.777649 192.547363,432.434174 194.041977,434.090729 
z"/>
<path fill="#000000" opacity="1.000000" stroke="none" 
	d="
M332.701599,394.500793 
	C329.312714,395.862213 325.623840,396.935822 321.567200,398.034760 
	C320.819275,396.971802 320.439178,395.883514 320.079529,394.447510 
	C324.200531,394.137512 328.301056,394.175293 332.701599,394.500793 
z"/>
<path fill="#BF3E3C" opacity="1.000000" stroke="none" 
	d="
M144.568115,408.122314 
	C143.187790,414.887543 144.304382,421.175018 148.915985,426.817780 
	C149.899551,428.021362 150.184494,429.795868 150.538940,431.660828 
	C149.856476,432.010773 149.426376,432.007202 148.996292,432.003662 
	C148.996292,432.003662 149.000000,432.000000 148.951065,431.682556 
	C148.275742,430.573120 147.649353,429.781097 147.022980,428.989105 
	C145.403030,424.338440 143.387512,419.773590 142.351532,414.996277 
	C141.917511,412.994843 143.560226,410.543030 144.568115,408.122314 
z"/>
<path fill="#BF3E3C" opacity="1.000000" stroke="none" 
	d="
M156.843613,401.048859 
	C154.823318,405.158813 150.728653,405.393585 146.374329,405.935730 
	C149.071365,404.314941 152.170074,402.689392 155.651413,401.017700 
	C156.214066,400.987335 156.394119,401.003143 156.843613,401.048859 
z"/>
<path fill="#BF3E3C" opacity="1.000000" stroke="none" 
	d="
M151.026901,432.970490 
	C152.631943,435.092133 154.236984,437.213776 155.916901,439.675781 
	C154.443634,438.530548 152.895477,437.044891 151.175110,434.940674 
	C151.010895,433.871552 151.018906,433.421021 151.026901,432.970490 
z"/>
<path fill="#B9433E" opacity="1.000000" stroke="none" 
	d="
M147.099991,429.288971 
	C147.649353,429.781097 148.275742,430.573120 148.949448,431.683868 
	C148.390182,431.198029 147.783600,430.393433 147.099991,429.288971 
z"/>
<path fill="#B9433E" opacity="1.000000" stroke="none" 
	d="
M151.004761,432.733093 
	C151.018906,433.421021 151.010895,433.871552 150.999420,434.659668 
	C150.385101,434.197540 149.774246,433.397827 149.079834,432.300903 
	C149.426376,432.007202 149.856476,432.010773 150.607697,432.018127 
	C150.928818,432.021881 150.982620,432.495697 151.004761,432.733093 
z"/>
<path fill="#B9433E" opacity="1.000000" stroke="none" 
	d="
M157.196381,441.974670 
	C157.192108,441.807526 157.453995,441.775726 157.843719,441.935608 
	C157.789963,442.001007 157.620285,441.995270 157.196381,441.974670 
z"/>
<path fill="#B9433E" opacity="1.000000" stroke="none" 
	d="
M145.355637,506.950928 
	C146.187531,506.332703 147.460541,505.227539 148.728256,505.233521 
	C160.624786,505.290100 172.520538,505.529602 184.415741,505.757385 
	C184.843201,505.765564 185.262512,506.200104 185.873871,506.698059 
	C186.048630,507.129883 186.035172,507.299622 186.003479,507.723816 
	C172.588272,507.645355 159.191284,507.312439 145.355637,506.950928 
z"/>
<path fill="#B34D4A" opacity="1.000000" stroke="none" 
	d="
M223.394836,465.071198 
	C222.987976,455.688690 222.990341,446.289978 223.459381,436.445221 
	C224.972000,435.981689 226.017975,435.964233 227.254288,436.241577 
	C227.653656,440.374939 227.862671,444.213531 228.071671,448.052094 
	C228.049469,448.487457 228.027283,448.922852 227.803955,450.042114 
	C226.848038,455.139069 225.854507,459.600708 230.055740,463.886932 
	C238.093842,452.988953 245.642044,442.646484 253.336502,432.414032 
	C254.887436,430.351501 256.992737,428.705780 258.880859,427.124756 
	C258.942200,427.553314 258.965027,427.724945 258.987885,427.896576 
	C250.983063,439.392426 242.886566,450.826080 235.019211,462.415222 
	C231.935257,466.958160 227.784592,465.241180 223.394836,465.071198 
z"/>
<path fill="#B95959" opacity="1.000000" stroke="none" 
	d="
M259.301208,427.832153 
	C258.965027,427.724945 258.942200,427.553314 258.821838,426.777100 
	C258.680878,424.863129 258.481384,423.536957 258.620026,422.247101 
	C259.379028,415.186798 260.221069,408.135376 261.034607,401.080902 
	C262.373260,401.045746 263.711914,401.010590 265.452087,400.983551 
	C265.580994,405.693817 265.308350,410.395966 265.093933,415.545898 
	C264.740692,418.432678 264.329224,420.871704 263.880554,423.750702 
	C262.433716,425.383057 261.024109,426.575409 259.301208,427.832153 
z"/>
<path fill="#B34846" opacity="1.000000" stroke="none" 
	d="
M339.190491,508.043793 
	C341.630890,507.255371 344.387878,506.232635 347.181854,506.118805 
	C353.564178,505.858673 359.966827,505.943634 366.356689,506.088684 
	C369.638214,506.163147 372.910034,506.667297 376.613770,507.018524 
	C375.275208,507.705811 373.505280,508.917267 371.743713,508.905243 
	C361.002716,508.832001 350.263611,508.480743 339.190491,508.043793 
z"/>
<path fill="#B34846" opacity="1.000000" stroke="none" 
	d="
M321.209778,508.111816 
	C322.126068,507.846893 323.313721,507.752808 324.773590,507.818604 
	C323.857605,508.079865 322.669373,508.181274 321.209778,508.111816 
z"/>
<path fill="#BF3E3C" opacity="1.000000" stroke="none" 
	d="
M260.775452,400.910278 
	C260.221069,408.135376 259.379028,415.186798 258.620026,422.247101 
	C258.481384,423.536957 258.680878,424.863129 258.783356,426.520203 
	C256.992737,428.705780 254.887436,430.351501 253.336502,432.414032 
	C245.642044,442.646484 238.093842,452.988953 230.055740,463.886932 
	C225.854507,459.600708 226.848038,455.139069 227.785812,450.368591 
	C228.446106,452.030426 228.923401,454.049683 229.753876,457.563171 
	C232.182343,454.758423 233.928513,452.775421 235.637650,450.760986 
	C239.804245,445.850159 244.117920,441.052734 248.074005,435.977081 
	C255.123016,426.933197 259.538788,416.945282 257.942291,405.097321 
	C257.441650,401.381866 254.743973,400.233795 250.932312,401.623749 
	C249.348724,402.201202 247.426071,401.987549 245.666199,401.917542 
	C239.713211,401.680786 233.761307,401.054047 227.813980,401.109772 
	C214.017914,401.239105 200.224243,401.658630 186.430771,402.007111 
	C181.782043,402.124573 177.137985,402.446716 172.489212,402.527344 
	C171.440582,402.545532 170.381256,401.946259 169.127075,401.344604 
	C171.666473,400.708374 174.398560,400.137329 177.146103,400.049377 
	C186.507935,399.749817 195.875229,399.620392 205.606979,399.249420 
	C222.993774,399.047211 240.014023,399.021637 257.498779,399.004974 
	C258.814301,399.589111 259.665314,400.164368 260.775452,400.910278 
z"/>
<path fill="#CE3B36" opacity="1.000000" stroke="none" 
	d="
M176.983521,460.395447 
	C179.731445,460.010956 182.519348,459.804169 185.260559,460.073181 
	C186.354843,460.180542 187.346054,461.338196 188.384186,462.017792 
	C187.562637,463.079437 186.890015,464.320557 185.881775,465.157135 
	C184.629898,466.195770 183.100388,466.899750 181.383911,467.882477 
	C179.719604,465.599121 178.362167,463.181519 176.983521,460.395447 
z"/>
<path fill="#B34846" opacity="1.000000" stroke="none" 
	d="
M164.126663,452.177246 
	C163.961227,452.169037 163.862549,452.101837 163.763855,452.034668 
	C163.907043,452.062561 164.050217,452.090424 164.126663,452.177246 
z"/>
<path fill="#BC4747" opacity="1.000000" stroke="none" 
	d="
M193.202393,507.287170 
	C195.419083,507.202148 197.884872,507.381714 200.712128,507.733459 
	C198.532883,507.787720 195.992188,507.669769 193.202393,507.287170 
z"/>
<path fill="#BE4A43" opacity="1.000000" stroke="none" 
	d="
M303.124023,491.232178 
	C304.007874,492.045441 304.958466,493.180542 305.936615,494.660034 
	C305.039703,493.854309 304.115234,492.704163 303.124023,491.232178 
z"/>
<path fill="#BE4540" opacity="1.000000" stroke="none" 
	d="
M387.241516,557.835876 
	C387.466156,557.368591 387.967133,556.800781 388.738892,556.121948 
	C388.512390,556.585815 388.015137,557.160583 387.241516,557.835876 
z"/>
<path fill="#B25452" opacity="1.000000" stroke="none" 
	d="
M256.937317,339.031952 
	C255.084869,337.113342 253.232407,335.194763 251.154541,332.651367 
	C251.222900,329.709076 251.516708,327.391510 251.943085,324.792999 
	C252.370178,323.961639 252.664688,323.411255 253.049957,322.531433 
	C254.787140,318.199646 256.433533,314.197235 258.079956,310.194855 
	C260.759552,309.787476 263.439148,309.380096 266.667267,309.253601 
	C267.477173,310.689209 267.738586,311.843994 267.698700,313.181030 
	C258.383636,316.639526 257.113983,318.429138 256.982483,328.182220 
	C256.933716,331.798340 256.950470,335.415344 256.937317,339.031952 
z"/>
<path fill="#895555" opacity="1.000000" stroke="none" 
	d="
M257.644104,310.126770 
	C256.433533,314.197235 254.787140,318.199646 252.820801,322.352661 
	C251.691223,321.966736 250.881592,321.430176 250.071960,320.893616 
	C250.418289,317.620850 250.764587,314.348053 251.121216,310.653046 
	C253.157120,310.173401 255.182709,310.116028 257.644104,310.126770 
z"/>
<path fill="#A34443" opacity="1.000000" stroke="none" 
	d="
M268.000000,312.998779 
	C267.738586,311.843994 267.477173,310.689209 267.075378,309.206726 
	C270.390869,308.838501 273.846771,308.797974 277.673920,308.950500 
	C278.041382,310.480499 278.037598,311.817383 277.618103,313.557770 
	C274.134979,313.640411 271.067474,313.319580 268.000000,312.998779 
z"/>
<path fill="#000000" opacity="1.000000" stroke="none" 
	d="
M251.600586,346.903046 
	C253.462341,346.903015 254.849518,346.954681 256.653870,346.943237 
	C259.472717,347.817657 261.998505,348.524780 264.252014,349.737762 
	C270.102020,352.886658 275.717102,352.435883 281.354370,349.269592 
	C282.899414,348.401733 284.578217,347.772034 286.553009,346.971069 
	C288.953979,346.932922 290.997620,346.956726 293.463257,346.908752 
	C312.994598,346.836975 332.103912,346.836975 351.076599,346.836975 
	C352.974365,354.053619 352.319427,355.000214 345.727875,355.001038 
	C297.317535,355.007172 248.907211,355.006317 200.496887,354.987488 
	C194.596283,354.985199 193.484009,352.860291 196.661346,347.033203 
	C215.039459,346.870667 233.082718,346.912720 251.600586,346.903046 
z"/>
<path fill="#787071" opacity="1.000000" stroke="none" 
	d="
M249.601166,320.917664 
	C250.881592,321.430176 251.691223,321.966736 252.730042,322.682068 
	C252.664688,323.411255 252.370178,323.961639 251.490738,324.772736 
	C232.602814,324.974060 214.299789,324.914673 195.996780,324.855286 
	C195.997162,323.836151 195.997543,322.816986 195.997009,321.416931 
	C213.707504,321.004547 231.418945,320.973114 249.601166,320.917664 
z"/>
<path fill="#000000" opacity="1.000000" stroke="none" 
	d="
M293.814087,326.364014 
	C293.967926,325.699707 294.111664,325.416809 294.476257,324.997681 
	C306.225586,324.560608 317.804260,324.128601 329.384735,324.073578 
	C335.683685,324.043640 342.000793,324.497833 348.274109,325.102631 
	C349.589935,325.229462 351.792755,327.014252 351.755920,327.963989 
	C351.687622,329.724213 350.623810,331.821411 349.295410,333.034637 
	C348.288147,333.954590 346.221436,333.989075 344.635315,333.957642 
	C331.388062,333.695007 318.143280,333.310333 304.896851,333.000214 
	C301.858856,332.929077 298.817444,333.003540 295.377441,333.046082 
	C294.977295,333.081146 294.556732,332.925751 294.338226,332.870422 
	C293.997498,330.783264 293.875244,328.751404 293.814087,326.364014 
z"/>
<path fill="#BF3E3C" opacity="1.000000" stroke="none" 
	d="
M267.698700,313.181030 
	C271.067474,313.319580 274.134979,313.640411 277.628540,313.958862 
	C286.359741,317.908264 290.082397,325.846039 287.692108,334.506287 
	C285.765411,341.486694 277.278320,347.246155 269.823334,345.797241 
	C265.704773,344.996796 261.883789,342.665283 257.584106,340.967407 
	C257.165833,340.494354 257.092041,340.077850 256.977783,339.346649 
	C256.950470,335.415344 256.933716,331.798340 256.982483,328.182220 
	C257.113983,318.429138 258.383636,316.639526 267.698700,313.181030 
M272.406860,315.385498 
	C268.166779,315.710327 263.462006,316.164185 262.114441,320.803497 
	C260.776520,325.409607 260.102203,330.502686 260.540497,335.252716 
	C261.038635,340.651276 267.955170,344.477783 273.360901,343.388000 
	C280.170349,342.015228 284.849243,336.302002 284.969147,329.213531 
	C285.087799,322.202057 280.784485,317.165375 272.406860,315.385498 
z"/>
<path fill="#000000" opacity="1.000000" stroke="none" 
	d="
M195.670319,325.102997 
	C214.299789,324.914673 232.602814,324.974060 251.358154,325.053711 
	C251.516708,327.391510 251.222900,329.709076 250.898972,332.425232 
	C250.309845,332.983185 249.750839,333.142517 249.054596,333.557617 
	C234.946213,333.542450 220.975357,333.256683 207.003784,333.011322 
	C203.598511,332.951508 200.190903,333.024231 196.390457,333.085754 
	C195.778976,330.540558 195.561401,327.945618 195.670319,325.102997 
z"/>
<path fill="#BC4747" opacity="1.000000" stroke="none" 
	d="
M194.506592,434.064270 
	C192.547363,432.434174 191.052765,430.777649 189.219299,429.007507 
	C188.880432,428.893890 188.935791,428.432159 189.419830,428.209381 
	C193.606644,427.647980 197.309387,427.309357 201.012146,426.970734 
	C205.344330,426.959991 209.676529,426.949280 214.840240,427.034119 
	C217.815750,427.743469 219.959732,428.357300 221.955627,429.301270 
	C221.540192,431.034943 221.272873,432.438507 221.005554,433.842041 
	C212.327423,433.907288 203.649323,433.972534 194.506592,434.064270 
z"/>
<path fill="#BF3E3C" opacity="1.000000" stroke="none" 
	d="
M222.103729,428.971130 
	C219.959732,428.357300 217.815750,427.743469 215.300339,427.034729 
	C218.411224,423.556763 222.694092,424.311462 225.931747,426.332825 
	C228.306793,427.815643 230.553787,431.369019 230.707535,434.119781 
	C230.956299,438.570801 229.438904,443.120544 228.369476,447.840332 
	C227.862671,444.213531 227.653656,440.374939 227.252502,435.823669 
	C227.399033,431.457123 226.680344,428.656891 222.103729,428.971130 
z"/>
<path fill="#BF3E3C" opacity="1.000000" stroke="none" 
	d="
M200.649261,426.789795 
	C197.309387,427.309357 193.606644,427.647980 189.447723,427.978577 
	C192.394440,424.513306 196.411331,426.149323 200.649261,426.789795 
z"/>
<path fill="#DB5E58" opacity="1.000000" stroke="none" 
	d="
M221.955627,429.301270 
	C226.680344,428.656891 227.399033,431.457123 227.062149,435.528870 
	C226.017975,435.964233 224.972000,435.981689 223.535217,435.981384 
	C222.621231,435.338989 222.098038,434.714417 221.290192,433.965942 
	C221.272873,432.438507 221.540192,431.034943 221.955627,429.301270 
z"/>
<path fill="#D73A33" opacity="1.000000" stroke="none" 
	d="
M272.799316,315.407227 
	C280.784485,317.165375 285.087799,322.202057 284.969147,329.213531 
	C284.849243,336.302002 280.170349,342.015228 273.360901,343.388000 
	C267.955170,344.477783 261.038635,340.651276 260.540497,335.252716 
	C260.102203,330.502686 260.776520,325.409607 262.114441,320.803497 
	C263.462006,316.164185 268.166779,315.710327 272.799316,315.407227 
z"/>
</svg>